<svg xmlns="http://www.w3.org/2000/svg" viewBox="0 0 500 500"><g id="freepik--Floor--inject-212"><path d="M402.39,266.18c-84.75-48.93-221.71-48.93-305.91,0s-83.76,128.27,1,177.2,221.71,48.93,305.92,0S487.14,315.12,402.39,266.18Z" style="fill:#f0f0f0"></path></g><g id="freepik--Shadows--inject-212"><path d="M331.8,367.06c-18.73-10.82-49-10.82-67.61,0s-18.51,28.35.22,39.16,49,10.82,67.61,0S350.53,377.87,331.8,367.06Z" style="fill:#e0e0e0"></path><polygon points="441.17 324.6 362.93 279.45 317.7 305.56 395.94 350.72 441.17 324.6" style="fill:#e0e0e0"></polygon><path d="M217.74,460.37,92.21,387.84a2,2,0,0,1,0-3.5L153,349.24l130,75.1a2,2,0,0,1,0,3.5l-56.32,32.53A8.86,8.86,0,0,1,217.74,460.37Z" style="fill:#e0e0e0"></path><polygon points="347.13 260.67 287.42 231.58 237.67 256.82 294.73 289.76 347.13 260.67" style="fill:#e0e0e0"></polygon><path d="M447.22,347.72c-6.69-3.87-17.5-3.87-24.15,0s-6.61,10.12.08,14,17.5,3.86,24.15,0S453.91,351.58,447.22,347.72Z" style="fill:#e0e0e0"></path></g><g id="freepik--Window--inject-212"><polygon points="369.78 91.96 372.84 90.18 405.13 108.76 405.13 112.29 369.78 91.96" style="fill:#f5f5f5"></polygon><polygon points="369.78 91.96 369.78 91.96 369.78 91.96 405.13 112.29 405.13 116.33 369.77 96.01 369.78 91.96" style="fill:#e0e0e0"></polygon><rect x="387.46" y="81.73" height="40.78" transform="translate(105.75 387.07) rotate(-60.09)" style="fill:#e0e0e0"></rect><polygon points="408.49 114.2 411.55 112.42 443.84 131 443.84 134.53 408.49 114.2" style="fill:#f5f5f5"></polygon><polygon points="408.49 114.2 408.49 114.2 408.49 114.2 443.84 134.53 443.84 138.57 408.48 118.25 408.49 114.2" style="fill:#e0e0e0"></polygon><rect x="426.17" y="103.97" height="40.78" transform="translate(105.88 431.78) rotate(-60.09)" style="fill:#e0e0e0"></rect><polygon points="369.95 58.01 373.01 56.23 372.83 165.22 369.77 167 369.95 58.01" style="fill:#f0f0f0"></polygon><polygon points="369.77 167 372.83 165.22 408.01 185.42 404.95 187.19 369.77 167" style="fill:#f5f5f5"></polygon><path d="M366.45,51.94,408.66,76.2l-.2,117.06L366.25,169ZM405,187.19l.17-109L370,58l-.18,109L405,187.19" style="fill:#e0e0e0"></path><polygon points="366.45 51.94 369.51 50.16 411.72 74.42 408.66 76.19 366.45 51.94" style="fill:#f5f5f5"></polygon><polygon points="408.66 76.19 411.72 74.42 411.51 191.49 408.46 193.26 408.66 76.19" style="fill:#f0f0f0"></polygon><polygon points="408.66 80.25 411.72 78.48 411.54 187.47 408.48 189.24 408.66 80.25" style="fill:#f0f0f0"></polygon><polygon points="408.48 189.24 411.54 187.47 446.72 207.66 443.66 209.44 408.48 189.24" style="fill:#f5f5f5"></polygon><path d="M405.16,74.19l42.21,24.25-.2,117.07L405,191.25Zm38.5,135.25.18-109-35.18-20.2-.18,109,35.18,20.2" style="fill:#e0e0e0"></path><polygon points="405.16 74.19 408.21 72.41 450.43 96.66 447.37 98.44 405.16 74.19" style="fill:#f5f5f5"></polygon><polygon points="447.37 98.44 450.43 96.66 450.22 213.73 447.17 215.51 447.37 98.44" style="fill:#f0f0f0"></polygon></g><g id="freepik--Refigerator--inject-212"><path d="M296.85,283.6h0a1.34,1.34,0,0,0-.78-1.1,4.22,4.22,0,0,0-3.79,0,1.35,1.35,0,0,0-.79,1.1h0a8.52,8.52,0,0,0,1.12,3.35h0a1.15,1.15,0,0,0,.39.36,2.58,2.58,0,0,0,2.33,0,1.06,1.06,0,0,0,.39-.36h0a8.52,8.52,0,0,0,1.12-3.35Z" style="fill:#e0e0e0"></path><path d="M343.54,256.83h0a1.31,1.31,0,0,0-.77-1.1,4.22,4.22,0,0,0-3.79,0,1.33,1.33,0,0,0-.79,1.1h0a8.52,8.52,0,0,0,1.12,3.35h0a1.15,1.15,0,0,0,.39.36,2.58,2.58,0,0,0,2.33,0,1.15,1.15,0,0,0,.39-.36h0a8.36,8.36,0,0,0,1.12-3.35Z" style="fill:#e0e0e0"></path><g style="opacity:0.1"><path d="M296.85,283.6h0a1.34,1.34,0,0,0-.78-1.1,4.22,4.22,0,0,0-3.79,0,1.35,1.35,0,0,0-.79,1.1h0a8.52,8.52,0,0,0,1.12,3.35h0a1.15,1.15,0,0,0,.39.36,2.58,2.58,0,0,0,2.33,0,1.06,1.06,0,0,0,.39-.36h0a8.52,8.52,0,0,0,1.12-3.35Z"></path><path d="M343.54,256.83h0a1.31,1.31,0,0,0-.77-1.1,4.22,4.22,0,0,0-3.79,0,1.33,1.33,0,0,0-.79,1.1h0a8.52,8.52,0,0,0,1.12,3.35h0a1.15,1.15,0,0,0,.39.36,2.58,2.58,0,0,0,2.33,0,1.15,1.15,0,0,0,.39-.36h0a8.36,8.36,0,0,0,1.12-3.35Z"></path></g><path d="M244,252.55h0a1.33,1.33,0,0,0-.78-1.09,4.18,4.18,0,0,0-3.79,0,1.36,1.36,0,0,0-.79,1.1h0a8.52,8.52,0,0,0,1.12,3.35h0a1.1,1.1,0,0,0,.38.36,2.58,2.58,0,0,0,2.33,0,1.06,1.06,0,0,0,.39-.36h0a8.52,8.52,0,0,0,1.12-3.35Z" style="fill:#e0e0e0"></path><path d="M290.67,225.78h0a1.32,1.32,0,0,0-.78-1.09,4.18,4.18,0,0,0-3.79,0,1.34,1.34,0,0,0-.79,1.1h0a8.52,8.52,0,0,0,1.12,3.35h0a1.15,1.15,0,0,0,.39.36,2.58,2.58,0,0,0,2.33,0,1.15,1.15,0,0,0,.39-.36h0a8.69,8.69,0,0,0,1.12-3.35Z" style="fill:#e0e0e0"></path><g style="opacity:0.1"><path d="M244,252.55h0a1.33,1.33,0,0,0-.78-1.09,4.18,4.18,0,0,0-3.79,0,1.36,1.36,0,0,0-.79,1.1h0a8.52,8.52,0,0,0,1.12,3.35h0a1.1,1.1,0,0,0,.38.36,2.58,2.58,0,0,0,2.33,0,1.06,1.06,0,0,0,.39-.36h0a8.52,8.52,0,0,0,1.12-3.35Z"></path><path d="M290.67,225.78h0a1.32,1.32,0,0,0-.78-1.09,4.18,4.18,0,0,0-3.79,0,1.34,1.34,0,0,0-.79,1.1h0a8.52,8.52,0,0,0,1.12,3.35h0a1.15,1.15,0,0,0,.39.36,2.58,2.58,0,0,0,2.33,0,1.15,1.15,0,0,0,.39-.36h0a8.69,8.69,0,0,0,1.12-3.35Z"></path></g><polygon points="237.49 170.44 237.26 252.2 294.32 285.14 294.55 203.38 237.49 170.44" style="fill:#f0f0f0"></polygon><polygon points="294.56 198.47 237.5 165.53 237.49 170.44 294.55 203.38 294.56 198.47" style="fill:#e0e0e0"></polygon><polygon points="294.56 198.47 294.73 139.97 237.67 107.03 237.5 165.53 294.56 198.47" style="fill:#f0f0f0"></polygon><polygon points="294.73 139.97 294.56 198.47 294.55 203.38 294.32 285.14 344.07 256.23 344.3 174.47 344.32 169.56 344.48 111.06 294.73 139.97" style="fill:#e6e6e6"></polygon><polygon points="344.48 111.06 287.42 78.11 237.67 107.03 294.73 139.97 344.48 111.06" style="fill:#f5f5f5"></polygon><path d="M282.38,185.07a1,1,0,0,1-.12-.17A1,1,0,0,0,282.38,185.07Z" style="fill:none"></path><path d="M282.05,153.21a1.16,1.16,0,0,1,0-.18h0A1.16,1.16,0,0,0,282.05,153.21Z" style="fill:none"></path><path d="M282.1,153h0a4.84,4.84,0,0,1,.18-.49h0A4.84,4.84,0,0,0,282.1,153Z" style="fill:none"></path><path d="M282.29,152.48h0a3.23,3.23,0,0,1,.25-.49h0A4.44,4.44,0,0,0,282.29,152.48Z" style="fill:none"></path><path d="M282.1,184.53c0,.08,0,.17.08.25C282.15,184.7,282.13,184.61,282.1,184.53Z" style="fill:none"></path><path d="M282,183.93a2.19,2.19,0,0,0,0,.46A2.19,2.19,0,0,1,282,183.93Z" style="fill:none"></path><path d="M283.62,150.7a2.63,2.63,0,0,1,.4-.28,2.63,2.63,0,0,0-.4.28Z" style="fill:none"></path><path d="M283.24,151.05a.27.27,0,0,1,.08-.07.27.27,0,0,0-.08.07Z" style="fill:none"></path><path d="M282.54,152h0a3.52,3.52,0,0,1,.3-.45h0A3.52,3.52,0,0,0,282.54,152Z" style="fill:none"></path><path d="M282.86,151.49c.05-.07.11-.13.17-.2s-.12.13-.17.2Z" style="fill:none"></path><polygon points="288.57 179.61 285.45 177.8 284.57 178.31 284.58 181.92 288.57 179.61" style="fill:#f5f5f5"></polygon><path d="M282.38,185.07a1,1,0,0,1-.12-.17s-.06-.08-.08-.12-.05-.17-.08-.25,0-.09,0-.14a2.19,2.19,0,0,1,0-.46v-.53l-.09-28.83V154a3.47,3.47,0,0,1,.12-.83,1.16,1.16,0,0,1,0-.18h0V153h0a4.84,4.84,0,0,1,.18-.49h0a4.44,4.44,0,0,1,.24-.49h0a3.52,3.52,0,0,1,.3-.45h0l0,0h0c.05-.07.11-.13.17-.2s.13-.16.21-.24h0a.27.27,0,0,1,.08-.07,3.84,3.84,0,0,1,.3-.28h0a2.63,2.63,0,0,1,.4-.28l.47-.27,4-2.3L285.36,146l-4,2.31-.46.27a2.55,2.55,0,0,0-.4.27l-.12.11-.19.16-.07.08-.07.08-.08.08-.17.21-.06.08,0,0a.35.35,0,0,0,0,.08l-.12.18-.11.17v0s-.05.09-.08.14l-.09.18c0,.05-.05.11-.08.16h0a1.54,1.54,0,0,0-.08.19,1.18,1.18,0,0,0-.07.2l0,.1v0l0,.07-.06.24s0,.1,0,.15,0,.05,0,.07a.17.17,0,0,0,0,.07,2.93,2.93,0,0,0,0,.41v.54l.08,28.82v.54a1.49,1.49,0,0,0,.61,1.35l3.13,1.81-.14-.11A1.09,1.09,0,0,1,282.38,185.07Z" style="fill:#f0f0f0"></path><path d="M288.57,179.61l-4,2.31V178.3l-.07-25.21,4-2.3v-2.94l-4,2.3-.47.27a2.63,2.63,0,0,0-.4.28,3.84,3.84,0,0,0-.3.28.27.27,0,0,0-.08.07c-.08.08-.14.16-.21.24s-.12.13-.17.2l0,0a3.52,3.52,0,0,0-.3.45h0a3.23,3.23,0,0,0-.25.49h0a4.84,4.84,0,0,0-.18.49V153a1.16,1.16,0,0,0,0,.18,3.47,3.47,0,0,0-.12.83v.53L282,183.4v.53a2.19,2.19,0,0,0,0,.46c0,.05,0,.09,0,.14s0,.17.08.25.06.08.08.12a1,1,0,0,0,.12.17,1.09,1.09,0,0,0,.11.1,1.37,1.37,0,0,0,1.63,0l.47-.27,4-2.31Z" style="fill:#e6e6e6"></path><path d="M288.57,179.61l-3.12-1.81-.88.5-.07-25.21,4-2.3v-2.95L285.36,146l-4,2.31-.46.27a2.55,2.55,0,0,0-.4.27l-.12.11-.19.16-.07.08-.07.08-.08.08-.17.21-.06.08,0,0a.35.35,0,0,0,0,.08l-.12.18-.11.17v0s-.05.09-.08.14l-.09.18c0,.05-.05.11-.08.16h0a1.54,1.54,0,0,0-.08.19,1.18,1.18,0,0,0-.07.2l0,.1v0l0,.07-.06.24s0,.1,0,.15,0,.05,0,.07a.17.17,0,0,0,0,.07,2.93,2.93,0,0,0,0,.41v.54l.08,28.82v.54a1.49,1.49,0,0,0,.61,1.35l3.13,1.81-.14-.11a1.37,1.37,0,0,0,1.63,0l.47-.27,4-2.31Z" style="opacity:0.1"></path><path d="M282.38,243.54a1.13,1.13,0,0,1-.12-.18A1.13,1.13,0,0,0,282.38,243.54Z" style="fill:none"></path><path d="M282.05,211.67a1.16,1.16,0,0,1,0-.18h0A1.16,1.16,0,0,0,282.05,211.67Z" style="fill:none"></path><path d="M282.1,211.45h0a5,5,0,0,1,.18-.5h0A5,5,0,0,0,282.1,211.45Z" style="fill:none"></path><path d="M282.29,211h0a3.23,3.23,0,0,1,.25-.49h0A4.44,4.44,0,0,0,282.29,211Z" style="fill:none"></path><path d="M282.1,243c0,.09,0,.18.08.25S282.13,243.08,282.1,243Z" style="fill:none"></path><path d="M282,242.4a2.19,2.19,0,0,0,0,.46A2.19,2.19,0,0,1,282,242.4Z" style="fill:none"></path><path d="M283.62,209.16a3.51,3.51,0,0,1,.4-.27,3.51,3.51,0,0,0-.4.27Z" style="fill:none"></path><path d="M283.24,209.52a.6.6,0,0,1,.08-.08.6.6,0,0,0-.08.08Z" style="fill:none"></path><path d="M282.54,210.44h0a4.27,4.27,0,0,1,.3-.44h0A4.27,4.27,0,0,0,282.54,210.44Z" style="fill:none"></path><path d="M282.86,210c.05-.07.11-.13.17-.2s-.12.13-.17.2Z" style="fill:none"></path><polygon points="288.57 238.08 285.45 236.26 284.57 236.77 284.58 240.38 288.57 238.08" style="fill:#f5f5f5"></polygon><path d="M282.38,243.54a1.13,1.13,0,0,1-.12-.18,1.25,1.25,0,0,1-.08-.12c0-.07-.05-.16-.08-.25s0-.08,0-.13a2.19,2.19,0,0,1,0-.46v-.54L281.93,213v-.54a3.54,3.54,0,0,1,.12-.83,1.16,1.16,0,0,1,0-.18h0v0h0a5,5,0,0,1,.18-.5h0a4.44,4.44,0,0,1,.24-.49h0v0h0a4.27,4.27,0,0,1,.3-.44h0l0,0h0c.05-.07.11-.13.17-.2a2.41,2.41,0,0,1,.21-.24h0a.6.6,0,0,1,.08-.08l.3-.28h0a3.51,3.51,0,0,1,.4-.27l.47-.27,4-2.31-3.12-1.81-4,2.3-.46.27a2.63,2.63,0,0,0-.4.28l-.12.1-.19.17-.07.08a.46.46,0,0,0-.07.07l-.08.09a1.73,1.73,0,0,0-.17.21l-.06.07,0,0,0,.07-.12.18a1.74,1.74,0,0,0-.11.18v0h0l-.08.15-.09.18c0,.05-.05.11-.08.16h0a1.42,1.42,0,0,0-.08.18c0,.07-.05.14-.07.2l0,.1v.05l0,.07-.06.24s0,.09,0,.14,0,.05,0,.08a.15.15,0,0,0,0,.07,2.83,2.83,0,0,0,0,.41v.53l.08,28.83v.53a1.47,1.47,0,0,0,.61,1.35l3.13,1.82a.81.81,0,0,1-.14-.12A.48.48,0,0,1,282.38,243.54Z" style="fill:#f0f0f0"></path><path d="M288.57,238.08l-4,2.3v-3.61l-.07-25.21,4-2.31v-2.94l-4,2.31-.47.27a3.51,3.51,0,0,0-.4.27l-.3.28a.6.6,0,0,0-.08.08,2.41,2.41,0,0,0-.21.24c-.06.07-.12.13-.17.2l0,0a4.27,4.27,0,0,0-.3.44v0a3.23,3.23,0,0,0-.25.49h0a5,5,0,0,0-.18.5v0a1.16,1.16,0,0,0,0,.18,3.54,3.54,0,0,0-.12.83V213l.09,28.82v.54a2.19,2.19,0,0,0,0,.46s0,.09,0,.13,0,.18.08.25a1.25,1.25,0,0,0,.08.12,1.13,1.13,0,0,0,.12.18.48.48,0,0,0,.11.09,1.35,1.35,0,0,0,1.63,0l.47-.27,4-2.3Z" style="fill:#e6e6e6"></path><path d="M288.57,238.08l-3.12-1.82-.88.51-.07-25.21,4-2.31v-2.94l-3.12-1.81-4,2.3-.46.27a2.63,2.63,0,0,0-.4.28l-.12.1-.19.17-.07.08a.46.46,0,0,0-.07.07l-.08.09a1.73,1.73,0,0,0-.17.21l-.06.07,0,0,0,.07-.12.18a1.74,1.74,0,0,0-.11.18v0h0l-.08.15-.09.18c0,.05-.05.11-.08.16h0a1.42,1.42,0,0,0-.08.18c0,.07-.05.14-.07.2l0,.1v.05l0,.07-.06.24s0,.09,0,.14,0,.05,0,.08a.15.15,0,0,0,0,.07,2.83,2.83,0,0,0,0,.41v.53l.08,28.83v.53a1.47,1.47,0,0,0,.61,1.35l3.13,1.82a.81.81,0,0,1-.14-.12,1.35,1.35,0,0,0,1.63,0l.47-.27,4-2.3Z" style="opacity:0.1"></path></g><g id="freepik--Oven--inject-212"><path d="M399.11,343.67h0a1.34,1.34,0,0,0-.78-1.1,4.22,4.22,0,0,0-3.79,0,1.36,1.36,0,0,0-.79,1.1h0a8.52,8.52,0,0,0,1.12,3.35h0a1.15,1.15,0,0,0,.39.36,2.58,2.58,0,0,0,2.33,0A1.15,1.15,0,0,0,398,347h0a8.52,8.52,0,0,0,1.12-3.35Z" style="fill:#e0e0e0"></path><path d="M439.41,320.42h0a1.34,1.34,0,0,0-.78-1.1,4.22,4.22,0,0,0-3.79,0,1.37,1.37,0,0,0-.79,1.1h0a8.52,8.52,0,0,0,1.12,3.35h0a1.1,1.1,0,0,0,.38.36,2.61,2.61,0,0,0,2.34,0,1.1,1.1,0,0,0,.38-.36h0a8.52,8.52,0,0,0,1.12-3.35Z" style="fill:#e0e0e0"></path><g style="opacity:0.1"><path d="M399.11,343.67h0a1.34,1.34,0,0,0-.78-1.1,4.22,4.22,0,0,0-3.79,0,1.36,1.36,0,0,0-.79,1.1h0a8.52,8.52,0,0,0,1.12,3.35h0a1.15,1.15,0,0,0,.39.36,2.58,2.58,0,0,0,2.33,0A1.15,1.15,0,0,0,398,347h0a8.52,8.52,0,0,0,1.12-3.35Z"></path><path d="M439.41,320.42h0a1.34,1.34,0,0,0-.78-1.1,4.22,4.22,0,0,0-3.79,0,1.37,1.37,0,0,0-.79,1.1h0a8.52,8.52,0,0,0,1.12,3.35h0a1.1,1.1,0,0,0,.38.36,2.61,2.61,0,0,0,2.34,0,1.1,1.1,0,0,0,.38-.36h0a8.52,8.52,0,0,0,1.12-3.35Z"></path></g><path d="M325.37,301.07h0a1.33,1.33,0,0,0-.78-1.09,4.15,4.15,0,0,0-3.79,0,1.35,1.35,0,0,0-.79,1.09h0a8.46,8.46,0,0,0,1.12,3.35h0a1,1,0,0,0,.38.36,2.52,2.52,0,0,0,2.33,0,1,1,0,0,0,.39-.36h0a8.46,8.46,0,0,0,1.12-3.34Z" style="fill:#e0e0e0"></path><path d="M365.67,277.82h0a1.33,1.33,0,0,0-.78-1.09,4.13,4.13,0,0,0-3.78,0,1.32,1.32,0,0,0-.79,1.09h0a8.3,8.3,0,0,0,1.12,3.35h0a1,1,0,0,0,.38.36,2.61,2.61,0,0,0,2.34,0,1.06,1.06,0,0,0,.39-.36h0a8.46,8.46,0,0,0,1.12-3.35Z" style="fill:#e0e0e0"></path><g style="opacity:0.1"><path d="M325.37,301.07h0a1.33,1.33,0,0,0-.78-1.09,4.15,4.15,0,0,0-3.79,0,1.35,1.35,0,0,0-.79,1.09h0a8.46,8.46,0,0,0,1.12,3.35h0a1,1,0,0,0,.38.36,2.52,2.52,0,0,0,2.33,0,1,1,0,0,0,.39-.36h0a8.46,8.46,0,0,0,1.12-3.34Z"></path><path d="M365.67,277.82h0a1.33,1.33,0,0,0-.78-1.09,4.13,4.13,0,0,0-3.78,0,1.32,1.32,0,0,0-.79,1.09h0a8.3,8.3,0,0,0,1.12,3.35h0a1,1,0,0,0,.38.36,2.61,2.61,0,0,0,2.34,0,1.06,1.06,0,0,0,.39-.36h0a8.46,8.46,0,0,0,1.12-3.35Z"></path></g><polygon points="395.91 276.27 395.9 278.56 317.69 233.41 317.7 231.12 395.91 276.27" style="fill:#e0e0e0"></polygon><polygon points="395.94 264.95 395.91 276.27 317.7 231.12 317.73 219.79 395.94 264.95" style="fill:#fff"></polygon><polygon points="395.9 278.56 395.71 345.47 317.5 300.32 317.69 233.41 395.9 278.56" style="fill:#fff"></polygon><path d="M362.43,265.32l26.21,15.14-.15,53.64L324.8,297.33l.15-53.64,26.22,15.14a2.67,2.67,0,0,0,1.21,2.09l8.83,5.1C361.88,266.41,362.42,266.1,362.43,265.32Zm22.44,62.51.13-45.29L328.57,250l-.13,45.29,56.43,32.58" style="fill:#e6e6e6"></path><polygon points="385 282.54 384.87 327.83 328.44 295.25 328.57 249.96 385 282.54" style="fill:#e0e0e0"></polygon><g style="opacity:0.2"><polygon points="385 282.54 384.87 327.83 328.44 295.25 328.57 249.96 385 282.54"></polygon></g><path d="M362.43,265.32c0,.78-.55,1.09-1.22.7l-8.83-5.1a2.67,2.67,0,0,1-1.21-2.09Z" style="fill:#e6e6e6"></path><g style="opacity:0.2"><path d="M362.43,265.32c0,.78-.55,1.09-1.22.7l-8.83-5.1a2.67,2.67,0,0,1-1.21-2.09Z"></path></g><path d="M328.44,232.36a6.33,6.33,0,0,0-2.87-5,1.87,1.87,0,0,0-2.3,0h0l0,.05s0,0-.05.05c-.27.29-1.16,1.21-2.19,2.34l2.94,5.33s2.1-.44,3.33-.81h0C328,234.16,328.44,233.46,328.44,232.36Z" style="fill:#e0e0e0"></path><path d="M322.54,230a4.73,4.73,0,0,1,2.16,3.74c0,1.37-1,1.93-2.17,1.24a4.78,4.78,0,0,1-2.16-3.74C320.38,229.82,321.35,229.27,322.54,230Z" style="fill:#e0e0e0"></path><g style="opacity:0.2"><path d="M322.54,230a4.73,4.73,0,0,1,2.16,3.74c0,1.37-1,1.93-2.17,1.24a4.78,4.78,0,0,1-2.16-3.74C320.38,229.82,321.35,229.27,322.54,230Z" style="fill:#fff"></path></g><path d="M328.44,232.36a6.33,6.33,0,0,0-2.87-5,1.87,1.87,0,0,0-2.3,0h0l0,.05s0,0-.05.05c-.27.29-1.16,1.21-2.19,2.34h0a1.5,1.5,0,0,0-.61,1.37,4.78,4.78,0,0,0,2.16,3.74,1.65,1.65,0,0,0,1.38.22h0s2.1-.44,3.33-.81h0C328,234.16,328.44,233.46,328.44,232.36Z" style="fill:#fff;opacity:0.30000000000000004"></path><path d="M340.24,239a6.32,6.32,0,0,0-2.87-5,1.85,1.85,0,0,0-2.31,0h0l0,.05-.06,0c-.27.29-1.15,1.21-2.19,2.34l2.94,5.33s2.11-.44,3.34-.81h0C339.77,240.83,340.23,240.13,340.24,239Z" style="fill:#e0e0e0"></path><path d="M334.34,236.63a4.77,4.77,0,0,1,2.16,3.74c0,1.37-1,1.93-2.17,1.24a4.74,4.74,0,0,1-2.16-3.74C332.17,236.49,333.14,235.94,334.34,236.63Z" style="fill:#e0e0e0"></path><g style="opacity:0.2"><path d="M334.34,236.63a4.77,4.77,0,0,1,2.16,3.74c0,1.37-1,1.93-2.17,1.24a4.74,4.74,0,0,1-2.16-3.74C332.17,236.49,333.14,235.94,334.34,236.63Z" style="fill:#fff"></path></g><path d="M340.24,239a6.32,6.32,0,0,0-2.87-5,1.85,1.85,0,0,0-2.31,0h0l0,.05-.06,0c-.27.29-1.15,1.21-2.19,2.34h0a1.52,1.52,0,0,0-.6,1.37,4.74,4.74,0,0,0,2.16,3.74,1.64,1.64,0,0,0,1.38.22h0s2.11-.44,3.34-.81h0C339.77,240.83,340.23,240.13,340.24,239Z" style="fill:#fff;opacity:0.30000000000000004"></path><path d="M379.37,261.67a6.29,6.29,0,0,0-2.87-5,1.84,1.84,0,0,0-2.3,0h0l0,.05s0,0,0,.05c-.27.29-1.16,1.21-2.19,2.34l2.94,5.33s2.1-.44,3.34-.81h0C378.9,263.47,379.37,262.77,379.37,261.67Z" style="fill:#e0e0e0"></path><path d="M373.47,259.27a4.74,4.74,0,0,1,2.16,3.74c0,1.37-1,1.93-2.17,1.24a4.77,4.77,0,0,1-2.16-3.74C371.31,259.13,372.28,258.58,373.47,259.27Z" style="fill:#e0e0e0"></path><g style="opacity:0.2"><path d="M373.47,259.27a4.74,4.74,0,0,1,2.16,3.74c0,1.37-1,1.93-2.17,1.24a4.77,4.77,0,0,1-2.16-3.74C371.31,259.13,372.28,258.58,373.47,259.27Z" style="fill:#fff"></path></g><path d="M379.37,261.67a6.29,6.29,0,0,0-2.87-5,1.84,1.84,0,0,0-2.3,0h0l0,.05s0,0,0,.05c-.27.29-1.16,1.21-2.19,2.34h0a1.5,1.5,0,0,0-.61,1.37,4.77,4.77,0,0,0,2.16,3.74,1.66,1.66,0,0,0,1.39.22h0s2.1-.44,3.34-.81h0C378.9,263.47,379.37,262.77,379.37,261.67Z" style="fill:#fff;opacity:0.30000000000000004"></path><path d="M391.17,268.35a6.32,6.32,0,0,0-2.87-5,1.85,1.85,0,0,0-2.31,0h0l0,.05-.06.05c-.27.29-1.15,1.21-2.19,2.34l2.94,5.33s2.11-.44,3.34-.81h0C390.7,270.14,391.17,269.44,391.17,268.35Z" style="fill:#e0e0e0"></path><path d="M385.27,265.94a4.77,4.77,0,0,1,2.16,3.74c0,1.38-1,1.93-2.17,1.24a4.74,4.74,0,0,1-2.16-3.74C383.1,265.81,384.07,265.25,385.27,265.94Z" style="fill:#e0e0e0"></path><g style="opacity:0.2"><path d="M385.27,265.94a4.77,4.77,0,0,1,2.16,3.74c0,1.38-1,1.93-2.17,1.24a4.74,4.74,0,0,1-2.16-3.74C383.1,265.81,384.07,265.25,385.27,265.94Z" style="fill:#fff"></path></g><path d="M391.17,268.35a6.32,6.32,0,0,0-2.87-5,1.85,1.85,0,0,0-2.31,0h0l0,.05-.06.05c-.27.29-1.15,1.21-2.19,2.34h0a1.52,1.52,0,0,0-.6,1.37,4.74,4.74,0,0,0,2.16,3.74,1.64,1.64,0,0,0,1.38.22h0s2.11-.44,3.34-.81h0C390.7,270.14,391.17,269.44,391.17,268.35Z" style="fill:#fff;opacity:0.30000000000000004"></path><polygon points="345.38 238.3 345.38 244.56 366.7 256.86 366.7 250.6 345.38 238.3" style="fill:#e0e0e0"></polygon><polygon points="395.71 345.47 441.17 319.36 441.17 238.83 395.94 264.95 395.71 345.47" style="fill:#e6e6e6"></polygon><polygon points="441.17 238.83 362.93 193.68 317.7 219.79 395.94 264.95 441.17 238.83" style="fill:#f0f0f0"></polygon></g><g id="freepik--Plant--inject-212"><path d="M451.38,325.49l-16.2.47-16.2-.47c-.69,10.94,1.44,22.09,4.39,27.53h0a7.33,7.33,0,0,0,3.2,3.27c4.78,2.76,12.51,2.76,17.26,0a7.25,7.25,0,0,0,3.2-3.35C450,347.46,452.08,336.38,451.38,325.49Z" style="fill:#fff"></path><path d="M446.6,318.86c6.35,3.66,6.38,9.6.07,13.27s-16.56,3.66-22.9,0-6.38-9.61-.08-13.27S440.25,315.19,446.6,318.86Z" style="fill:#ebebeb"></path><path d="M444.09,320.31c5,2.86,5,7.5.06,10.36s-12.92,2.86-17.87,0-5-7.5-.06-10.36S439.14,317.46,444.09,320.31Z" style="fill:#e0e0e0"></path><g style="opacity:0.15"><path d="M444.09,320.31c5,2.86,5,7.5.06,10.36s-12.92,2.86-17.87,0-5-7.5-.06-10.36S439.14,317.46,444.09,320.31Z"></path></g><path d="M461.82,256.37c-36.51,11.95-36.84,36.37-28.61,53.76,2.08,3.52,8.36,5.41,13.82-16.22l-9.59,1.23,11.18-5.66,2.9-8.68-9.32.7,11.83-5A174.46,174.46,0,0,1,461.82,256.37Z" style="fill:#D91DA7"></path><path d="M461.82,256.37c-36.51,11.95-36.84,36.37-28.61,53.76,2.08,3.52,8.36,5.41,13.82-16.22l-9.59,1.23,11.18-5.66,2.9-8.68-9.32.7,11.83-5A174.46,174.46,0,0,1,461.82,256.37Z" style="opacity:0.2"></path><path d="M461.82,256.37c-36.51,11.95-36.84,36.37-28.61,53.76,2.08,3.52,8.36,5.41,13.82-16.22l-9.59,1.23,11.18-5.66,2.9-8.68-9.32.7,11.83-5A174.46,174.46,0,0,1,461.82,256.37Z" style="fill:#fff;opacity:0.2"></path><path d="M451.49,262.47c-19.25,14.61-21,31.37-15.55,48.85C434,295.92,431.94,280.35,451.49,262.47Z" style="fill:#fff"></path><path d="M400,281.17c36,5.07,40.35,27.76,35.58,45.32-1.35,3.63-6.88,6.43-15.57-12.8l9.13-.45-11.34-3.42-4.15-7.6,8.79-.9-11.84-2.67A164.09,164.09,0,0,0,400,281.17Z" style="fill:#D91DA7"></path><path d="M400,281.17c36,5.07,40.35,27.76,35.58,45.32-1.35,3.63-6.88,6.43-15.57-12.8l9.13-.45-11.34-3.42-4.15-7.6,8.79-.9-11.84-2.67A164.09,164.09,0,0,0,400,281.17Z" style="fill:#fff;opacity:0.2"></path><path d="M400,281.17c36,5.07,40.35,27.76,35.58,45.32-1.35,3.63-6.88,6.43-15.57-12.8l9.13-.45-11.34-3.42-4.15-7.6,8.79-.9-11.84-2.67A164.09,164.09,0,0,0,400,281.17Z" style="opacity:0.1"></path><path d="M410.62,285.15c20.35,10.41,24.75,25.72,22.59,42.91C432.45,313.4,431.8,298.55,410.62,285.15Z" style="fill:#fff"></path><path d="M472.35,289.68c-33,.54-39.48,20.5-37.14,36.86.81,3.42,5.49,6.57,15.47-9.8l-8.18-1.42,10.61-1.82,4.58-6.38-7.82-1.8,11-1.08A149,149,0,0,1,472.35,289.68Z" style="fill:#D91DA7"></path><path d="M462.32,292.07c-19.51,7.1-25.19,20.41-25.17,36.14C439.48,315.09,441.73,301.78,462.32,292.07Z" style="fill:#fff"></path><path d="M472.35,289.68c-33,.54-39.48,20.5-37.14,36.86.81,3.42,5.49,6.57,15.47-9.8l-8.18-1.42,10.61-1.82,4.58-6.38-7.82-1.8,11-1.08A149,149,0,0,1,472.35,289.68Z" style="fill:#fff;opacity:0.2"></path></g><g id="freepik--Manual--inject-212"><path d="M68.19,106.12c-2.5,1.44-2.52,3.79,0,5.23l15.18,8.82a9.94,9.94,0,0,0,9,0L217.24,48.09,193.05,34Z" style="fill:#f0f0f0"></path><path d="M97.23,116.68c-5.2,3-13.61,3-18.78,0l-15.18-8.83c-2.64-1.53-3.91-3.56-3.83-5.58h0V317.94h0c-.06,2,1.21,4,3.84,5.55l15.18,8.82c5.17,3,13.58,3,18.78,0l131.54-75.95V40.73Z" style="fill:#D91DA7"></path><path d="M97.23,116.68c-5.2,3-13.61,3-18.78,0l-15.18-8.83c-2.64-1.53-3.91-3.56-3.83-5.58h0V317.94h0c-.06,2,1.21,4,3.84,5.55l15.18,8.82c5.17,3,13.58,3,18.78,0l131.54-75.95V40.73Z" style="opacity:0.25"></path><path d="M68.16,105l1,.55L193.05,34l6.68,3.88V23.85L68.19,99.8C65.69,101.24,65.67,103.59,68.16,105Z" style="fill:#D91DA7"></path><path d="M68.16,105l1,.55L193.05,34l6.68,3.88V23.85L68.19,99.8C65.69,101.24,65.67,103.59,68.16,105Z" style="opacity:0.25"></path><path d="M223.93,37.91l-6.69,3.86L92.38,113.86a10,10,0,0,1-9,0l-14.23-8.28-1-.55c-2.49-1.44-2.47-3.79,0-5.23L199.73,23.85,194.88,21,63.33,97c-2.53,1.46-3.82,3.37-3.89,5.29s1.19,4,3.83,5.58l15.18,8.83c5.17,3,13.58,3,18.78,0l131.54-76Z" style="fill:#D91DA7"></path><path d="M223.93,37.91l-6.69,3.86L92.38,113.86a10,10,0,0,1-9,0l-14.23-8.28-1-.55c-2.49-1.44-2.47-3.79,0-5.23L199.73,23.85,194.88,21,63.33,97c-2.53,1.46-3.82,3.37-3.89,5.29s1.19,4,3.83,5.58l15.18,8.83c5.17,3,13.58,3,18.78,0l131.54-76Z" style="opacity:0.25"></path><path d="M223.93,37.91l-6.69,3.86L92.38,113.86a10,10,0,0,1-9,0l-14.23-8.28-1-.55c-2.49-1.44-2.47-3.79,0-5.23L199.73,23.85,194.88,21,63.33,97c-2.53,1.46-3.82,3.37-3.89,5.29s1.19,4,3.83,5.58l15.18,8.83c5.17,3,13.58,3,18.78,0l131.54-76Z" style="fill:#fff;opacity:0.25"></path><path d="M78.45,116.68l-15.18-8.83c-2.64-1.53-3.91-3.56-3.83-5.58h0V317.94h0c-.06,2,1.21,4,3.84,5.55l15.18,8.82a19.51,19.51,0,0,0,10.34,2.22V118.9A19.61,19.61,0,0,1,78.45,116.68Z" style="fill:#fff;opacity:0.15"></path><polygon points="116.59 155.08 116.62 165.78 113.48 167.59 113.45 156.89 116.59 155.08" style="fill:#D91DA7"></polygon><polygon points="127.28 148.9 127.31 159.6 124.73 161.09 121.18 158.27 121.2 163.13 118.13 164.9 118.1 154.2 120.69 152.71 124.23 155.53 124.22 150.67 127.28 148.9" style="fill:#D91DA7"></polygon><polygon points="142.09 158.73 142.15 169.41 139.29 171.06 139.26 166.2 137.24 171.28 135.85 172.08 133.83 169.49 133.84 174.21 130.98 175.86 130.95 165.16 133.53 163.67 136.58 167.62 139.52 160.21 142.09 158.73" style="fill:#D91DA7"></polygon><path d="M132.7,145.53a6.89,6.89,0,0,1,3.52-1.1l-.94,3.16a5.11,5.11,0,0,0-2.6.71c-.92.53-1.21,1-1.21,1.36,0,1.29,5.15-2.75,5.16,1.19,0,2-1.44,4.44-4.33,6.11a7.42,7.42,0,0,1-4.05,1.24l1-3.21a5.53,5.53,0,0,0,3.08-.8c.88-.51,1.2-.9,1.2-1.27,0-1.35-5.15,2.71-5.16-1.28C128.36,149.65,129.82,147.2,132.7,145.53Z" style="fill:#D91DA7"></path><path d="M149.79,154.28l4.1,8.35-3.24,1.87L150,163l-3.53,2-.62,2.23-3.2,1.84,4-13.05ZM147.33,162l1.81-1-.91-2.18-.9,3.22" style="fill:#D91DA7"></path><polygon points="145.29 138.5 145.3 141.3 142.58 142.87 142.6 150.77 139.47 152.58 139.44 144.68 136.71 146.26 136.7 143.46 145.29 138.5" style="fill:#D91DA7"></polygon><polygon points="163.55 146.34 163.58 157.04 161 158.53 157.45 155.71 157.46 160.57 154.4 162.34 154.37 151.64 156.95 150.15 160.5 152.97 160.49 148.11 163.55 146.34" style="fill:#D91DA7"></polygon><path d="M153.1,141.4l2,2.18-3.36,1.93-1.58-1.78-.85.49v2.69l-3.15,1.82,0-10.7,4.48-2.59c2.6-1.5,4.25-.89,4.26,1.59A6.75,6.75,0,0,1,153.1,141.4Zm-2.69-.56a2.22,2.22,0,0,0,1.27-2c0-.78-.41-1-1.28-.52l-1.14.66v2.5l1.14-.66" style="fill:#D91DA7"></path><path d="M174.06,140.27v5.89a8.7,8.7,0,0,1-4.52,7.67c-2.86,1.65-4.54.77-4.55-2.44v-5.88l3.14-1.81,0,5.77c0,1.63.54,1.94,1.42,1.43a3.18,3.18,0,0,0,1.42-3.07l0-5.78Z" style="fill:#D91DA7"></path><path d="M165,127.12l0,5.88a8.7,8.7,0,0,1-4.52,7.67c-2.86,1.66-4.54.78-4.55-2.43l0-5.89,3.15-1.81v5.78c0,1.63.55,1.93,1.43,1.43a3.22,3.22,0,0,0,1.42-3.07l0-5.78Z" style="fill:#D91DA7"></path><path d="M181.44,136l4.1,8.35-3.24,1.87-.63-1.51-3.54,2-.62,2.23-3.19,1.85,4-13.05ZM179,143.68l1.81-1.05-.91-2.17-.9,3.22" style="fill:#D91DA7"></path><path d="M171.27,123.26c1.83-1.05,3.27-1.12,4.19-.28l-2,3.19a1.59,1.59,0,0,0-2-.09,4.58,4.58,0,0,0-2.17,3.93c0,1.64.88,2.18,2.18,1.43a5.42,5.42,0,0,0,2-2.44l2,.9a10.43,10.43,0,0,1-4.18,4.54c-3,1.73-5.19.7-5.2-2.6A10.56,10.56,0,0,1,171.27,123.26Z" style="fill:#D91DA7"></path><polygon points="184.17 116.06 184.18 118.85 181.46 120.43 181.48 128.33 178.35 130.14 178.32 122.23 175.59 123.81 175.58 121.02 184.17 116.06" style="fill:#D91DA7"></polygon><polygon points="188.13 113.77 188.16 124.47 185.02 126.28 184.99 115.58 188.13 113.77" style="fill:#D91DA7"></polygon><path d="M194.53,109.83c3-1.75,5.26-.68,5.27,2.56a10.69,10.69,0,0,1-5.24,8.62c-3,1.76-5.26.69-5.27-2.56A10.72,10.72,0,0,1,194.53,109.83Zm0,8.27a4.57,4.57,0,0,0,2.08-3.89c0-1.66-.93-2.13-2.09-1.46a4.6,4.6,0,0,0-2.09,3.88c0,1.67,1,2.14,2.1,1.47" style="fill:#D91DA7"></path><polygon points="210.11 101.08 210.14 111.78 207.56 113.27 204.01 110.45 204.02 115.31 200.96 117.08 200.93 106.38 203.51 104.89 207.06 107.71 207.04 102.85 210.11 101.08" style="fill:#D91DA7"></polygon><polygon points="189.16 131.55 189.19 139.45 193.39 137.03 193.4 139.82 186.05 144.06 186.02 133.37 189.16 131.55" style="fill:#D91DA7"></polygon><g style="opacity:0.4"><polygon points="116.59 155.08 116.62 165.78 113.48 167.59 113.45 156.89 116.59 155.08" style="fill:#fff"></polygon><polygon points="127.28 148.9 127.31 159.6 124.73 161.09 121.18 158.27 121.2 163.13 118.13 164.9 118.1 154.2 120.69 152.71 124.23 155.53 124.22 150.67 127.28 148.9" style="fill:#fff"></polygon><polygon points="142.09 158.73 142.15 169.41 139.29 171.06 139.26 166.2 137.24 171.28 135.85 172.08 133.83 169.49 133.84 174.21 130.98 175.86 130.95 165.16 133.53 163.67 136.58 167.62 139.52 160.21 142.09 158.73" style="fill:#fff"></polygon><path d="M132.7,145.53a6.89,6.89,0,0,1,3.52-1.1l-.94,3.16a5.11,5.11,0,0,0-2.6.71c-.92.53-1.21,1-1.21,1.36,0,1.29,5.15-2.75,5.16,1.19,0,2-1.44,4.44-4.33,6.11a7.42,7.42,0,0,1-4.05,1.24l1-3.21a5.53,5.53,0,0,0,3.08-.8c.88-.51,1.2-.9,1.2-1.27,0-1.35-5.15,2.71-5.16-1.28C128.36,149.65,129.82,147.2,132.7,145.53Z" style="fill:#fff"></path><path d="M149.79,154.28l4.1,8.35-3.24,1.87L150,163l-3.53,2-.62,2.23-3.2,1.84,4-13.05ZM147.33,162l1.81-1-.91-2.18-.9,3.22" style="fill:#fff"></path><polygon points="145.29 138.5 145.3 141.3 142.58 142.87 142.6 150.77 139.47 152.58 139.44 144.68 136.71 146.26 136.7 143.46 145.29 138.5" style="fill:#fff"></polygon><polygon points="163.55 146.34 163.58 157.04 161 158.53 157.45 155.71 157.46 160.57 154.4 162.34 154.37 151.64 156.95 150.15 160.5 152.97 160.49 148.11 163.55 146.34" style="fill:#fff"></polygon><path d="M153.1,141.4l2,2.18-3.36,1.93-1.58-1.78-.85.49v2.69l-3.15,1.82,0-10.7,4.48-2.59c2.6-1.5,4.25-.89,4.26,1.59A6.75,6.75,0,0,1,153.1,141.4Zm-2.69-.56a2.22,2.22,0,0,0,1.27-2c0-.78-.41-1-1.28-.52l-1.14.66v2.5l1.14-.66" style="fill:#fff"></path><path d="M174.06,140.27v5.89a8.7,8.7,0,0,1-4.52,7.67c-2.86,1.65-4.54.77-4.55-2.44v-5.88l3.14-1.81,0,5.77c0,1.63.54,1.94,1.42,1.43a3.18,3.18,0,0,0,1.42-3.07l0-5.78Z" style="fill:#fff"></path><path d="M165,127.12l0,5.88a8.7,8.7,0,0,1-4.52,7.67c-2.86,1.66-4.54.78-4.55-2.43l0-5.89,3.15-1.81v5.78c0,1.63.55,1.93,1.43,1.43a3.22,3.22,0,0,0,1.42-3.07l0-5.78Z" style="fill:#fff"></path><path d="M181.44,136l4.1,8.35-3.24,1.87-.63-1.51-3.54,2-.62,2.23-3.19,1.85,4-13.05ZM179,143.68l1.81-1.05-.91-2.17-.9,3.22" style="fill:#fff"></path><path d="M171.27,123.26c1.83-1.05,3.27-1.12,4.19-.28l-2,3.19a1.59,1.59,0,0,0-2-.09,4.58,4.58,0,0,0-2.17,3.93c0,1.64.88,2.18,2.18,1.43a5.42,5.42,0,0,0,2-2.44l2,.9a10.43,10.43,0,0,1-4.18,4.54c-3,1.73-5.19.7-5.2-2.6A10.56,10.56,0,0,1,171.27,123.26Z" style="fill:#fff"></path><polygon points="184.17 116.06 184.18 118.85 181.46 120.43 181.48 128.33 178.35 130.14 178.32 122.23 175.59 123.81 175.58 121.02 184.17 116.06" style="fill:#fff"></polygon><polygon points="188.13 113.77 188.16 124.47 185.02 126.28 184.99 115.58 188.13 113.77" style="fill:#fff"></polygon><path d="M194.53,109.83c3-1.75,5.26-.68,5.27,2.56a10.69,10.69,0,0,1-5.24,8.62c-3,1.76-5.26.69-5.27-2.56A10.72,10.72,0,0,1,194.53,109.83Zm0,8.27a4.57,4.57,0,0,0,2.08-3.89c0-1.66-.93-2.13-2.09-1.46a4.6,4.6,0,0,0-2.09,3.88c0,1.67,1,2.14,2.1,1.47" style="fill:#fff"></path><polygon points="210.11 101.08 210.14 111.78 207.56 113.27 204.01 110.45 204.02 115.31 200.96 117.08 200.93 106.38 203.51 104.89 207.06 107.71 207.04 102.85 210.11 101.08" style="fill:#fff"></polygon><polygon points="189.16 131.55 189.19 139.45 193.39 137.03 193.4 139.82 186.05 144.06 186.02 133.37 189.16 131.55" style="fill:#fff"></polygon></g></g><g id="freepik--Character--inject-212"><path d="M277.75,162.25c.5,1.16,1.86,1.71,2.51,2.78a2.69,2.69,0,1,1-4.71,2.58,7.61,7.61,0,0,0,0,3.08,3,3,0,0,0,1.92,2.25,5.44,5.44,0,0,0,3.44,9.25c-.4,2.81,1.43,5.85,3.75,7.49a12.18,12.18,0,0,0,8.11,1.89,26.78,26.78,0,0,0,8.13-2.39A29.32,29.32,0,0,0,313.24,191c2.66-.25,5.45-1,7.3-2.9s2.27-5.39.3-7.2a4.08,4.08,0,0,0,4.19,0,3.57,3.57,0,0,0-.62-6.55,3.12,3.12,0,0,0,1.43-2.81,2.93,2.93,0,0,0-2-2.31,2.53,2.53,0,0,1-.69,2.61,2.37,2.37,0,0,1-2.59.12,3.2,3.2,0,0,1-1.34-2.25,11,11,0,0,1,0-2.68,19.84,19.84,0,0,0-.88-9.16c-1.15-2.88-3.58-5.39-6.63-5.92A15.26,15.26,0,0,0,294,141.82c-3.07.68-6.07,2.52-7.3,5.41a16.56,16.56,0,0,0-4-.34,5.37,5.37,0,0,0-3.63,1.35,3.26,3.26,0,0,0-.8,3.62c.41.84,1.27,1.58,1.06,2.48s-1.05,1.16-1.48,1.83a2.36,2.36,0,0,0,0,2.15,7.29,7.29,0,0,0,1.3,1.82c.45.52.92,1.2.67,1.84S278.1,162.88,277.75,162.25Z" style="fill:#263238"></path><path d="M287,186.21c-10.85,0-12.92,15.5-15,23s-3,12.44-3,12.44l12.81,2.77Z" style="fill:#7a4847"></path><path d="M264.2,212.43l3.24,2-.93-4.22a1.2,1.2,0,0,0-1.44-.91h0a1.18,1.18,0,0,0-.93,1.2Z" style="fill:#7a4847"></path><path d="M322.72,383.33a3.71,3.71,0,0,0,3.44,2.07,3.66,3.66,0,0,0,2.78-2.36,10.13,10.13,0,0,0,.56-3.76c.09-4.24,0-8.48-.3-12.71a42.57,42.57,0,0,1-8.88.93q.69,5.87,1.37,11.73A10.83,10.83,0,0,0,322.72,383.33Z" style="fill:#7a4847"></path><path d="M332,377.23c-1.1-3.53-2.3-7.14-2.05-10.83l-.73.17c.28,4.23.39,8.47.3,12.71a10.13,10.13,0,0,1-.56,3.76,3.66,3.66,0,0,1-2.78,2.36,3.71,3.71,0,0,1-3.44-2.07,10.83,10.83,0,0,1-1-4.1q-.69-5.87-1.37-11.73h-.94c.8,4.39.23,8.9-.05,13.35S319.1,390,321,394a5.86,5.86,0,0,0,2.17,2.68,4.45,4.45,0,0,0,3.52.32,7.77,7.77,0,0,0,3.06-1.9,12.58,12.58,0,0,0,3.71-7C334.1,384.47,333.08,380.76,332,377.23Z" style="fill:#455a64"></path><path d="M285.73,373.85l.73,4.37c3.47-1.65,4.59-3.51,4.59-3.51.09-3.35.05-6.81,0-8.49-.92,2-2.94,3.42-4.2,5.3A11.18,11.18,0,0,0,285.73,373.85Z" style="fill:#37474f"></path><path d="M284.62,377.75l1.84.47-.73-4.37C285.28,375.11,285,376.44,284.62,377.75Z" style="fill:#263238"></path><path d="M291.24,361.38A17.91,17.91,0,0,0,289.8,358a9.62,9.62,0,0,1-1.6,5c-1.25,2-2.92,3.74-4.12,5.79-1.46,2.48-2.21,5.41-4.13,7.57a9.1,9.1,0,0,1-7.56,2.94,4.08,4.08,0,0,1-2.77-1.24,2.25,2.25,0,0,1-.46-1.32,19.75,19.75,0,0,1-3.11,2.73c-1.26.88-2.78,1.8-3,3.33a3.27,3.27,0,0,0,1.81,3.1,8.44,8.44,0,0,0,3.69.82,23.32,23.32,0,0,0,8.12-.69,11.28,11.28,0,0,0,6.48-4.71,14.49,14.49,0,0,0,1.45-3.65c.36-1.31.66-2.64,1.11-3.9a11.18,11.18,0,0,1,1.14-2.33c1.26-1.88,3.28-3.26,4.2-5.3a3.31,3.31,0,0,0,.15-.33A7.24,7.24,0,0,0,291.24,361.38Z" style="fill:#455a64"></path><path d="M272.39,379.38a9.1,9.1,0,0,0,7.56-2.94c1.92-2.16,2.67-5.09,4.13-7.57,1.2-2.05,2.87-3.78,4.12-5.79a9.62,9.62,0,0,0,1.6-5l-.45-.84c-3.78.67-7.9.9-11.53,2.13a74.34,74.34,0,0,1-4.26,11.12,27.73,27.73,0,0,1-4.4,6.37,2.25,2.25,0,0,0,.46,1.32A4.08,4.08,0,0,0,272.39,379.38Z" style="fill:#7a4847"></path><path d="M282.64,222c-.2,3.2-.41,6.4-.61,9.59-7.22,29.75-5.07,74.2-5.07,74.2l.23,54.2A9.22,9.22,0,0,0,290,357.18c1.22-13.33,7.42-34.27,5.56-50.63,2.48-12.89,4.34-31.24,4.34-31.24L306,307l12.64,61.23c5.58,2.35,10.54.74,12.15-1.43-1.3-33.77-.74-50-6-65.62,1.61-41.89,2.9-60.84-7.3-75.24v-5.42Z" style="fill:#37474f"></path><path d="M286.22,253.1a10.38,10.38,0,0,0,7.57,6.76l3.53,14.65a28.09,28.09,0,0,1,.71,4.56l.56,7.83c.83-6.6,1.34-11.59,1.34-11.59l-3.36-17.57A23.73,23.73,0,0,1,286.22,253.1Z" style="opacity:0.2"></path><path d="M316,187.17l-6.51-.59a20.36,20.36,0,0,1-16.21,8,5.64,5.64,0,0,1-3.63-1,4.42,4.42,0,0,1-1-4.74,9.13,9.13,0,0,1,1.54-2.71H287a33.9,33.9,0,0,0-8.56,12.27A14.78,14.78,0,0,0,277.1,205a7,7,0,0,0,3.15,5.63,33.28,33.28,0,0,0,.25,7.85,10.74,10.74,0,0,0,3.43,6.69,13.8,13.8,0,0,0,6.58,2.52,49,49,0,0,0,18.07-.34c3.42-.72,7-2,9.12-4.72,2-2.58,2.36-6.05,2.3-9.3S316,187.17,316,187.17Z" style="fill:#D91DA7"></path><path d="M316,187.17l-6.51-.59a20.36,20.36,0,0,1-16.21,8,5.64,5.64,0,0,1-3.63-1,4.42,4.42,0,0,1-1-4.74,9.13,9.13,0,0,1,1.54-2.71H287a33.9,33.9,0,0,0-8.56,12.27A14.78,14.78,0,0,0,277.1,205a7,7,0,0,0,3.15,5.63,33.28,33.28,0,0,0,.25,7.85,10.74,10.74,0,0,0,3.43,6.69,13.8,13.8,0,0,0,6.58,2.52,49,49,0,0,0,18.07-.34c3.42-.72,7-2,9.12-4.72,2-2.58,2.36-6.05,2.3-9.3S316,187.17,316,187.17Z" style="fill:#fff;opacity:0.5"></path><path d="M289.64,193.66a5.64,5.64,0,0,0,3.63,1,20.36,20.36,0,0,0,16.21-8l-3.6-.31V174.68l-12.52,4.83v6.7h-3.2a9.13,9.13,0,0,0-1.54,2.71A4.42,4.42,0,0,0,289.64,193.66Z" style="fill:#7a4847"></path><path d="M305,175c-3.75,7.28-6.08,7.44-11.64,8.09v-3.6Z" style="opacity:0.2"></path><path d="M282.31,158.19a45.46,45.46,0,0,0-.2,16.65c.36,2.07,1,4.27,2.6,5.59,2,1.62,4.92,1.38,7.49,1a29.61,29.61,0,0,0,8.24-1.85,10.1,10.1,0,0,0,5.79-5.84,3.63,3.63,0,0,0,4.39-.71,6.45,6.45,0,0,0,1.62-4.42c0-1.45-.34-3.1-1.59-3.85a3.32,3.32,0,0,0-2.87-.12,7,7,0,0,0-2.4,1.73,5.06,5.06,0,0,1-1.14,1,1.45,1.45,0,0,1-1.44,0,2.09,2.09,0,0,1-.61-1.69c-.12-2.53-.38-5.16-1.67-7.33s-3.91-3.77-6.36-3.11c-1.12.3-2.13,1-3.29,1.07a5.21,5.21,0,0,1-2.61-.85l0,0A3.81,3.81,0,0,0,282.31,158.19Z" style="fill:#7a4847"></path><polygon points="290.2 165.01 286.87 170.62 290.84 171.36 290.2 165.01" style="fill:#63302e"></polygon><path d="M294.67,173.29l-3,1.47a2,2,0,0,0,2.29.65A1.78,1.78,0,0,0,294.67,173.29Z" style="fill:#63302e"></path><path d="M294.67,173.29l-3,1.47a2,2,0,0,0,2.29.65A1.78,1.78,0,0,0,294.67,173.29Z" style="opacity:0.30000000000000004"></path><path d="M292.89,175.51a1.86,1.86,0,0,0,1.05-.1,1.59,1.59,0,0,0,.8-1.59,1.81,1.81,0,0,0-1.85,1.69Z" style="fill:#63302e"></path><path d="M292.89,175.51a1.86,1.86,0,0,0,1.05-.1,1.59,1.59,0,0,0,.8-1.59,1.81,1.81,0,0,0-1.85,1.69Z" style="opacity:0.1"></path><path d="M296,165.23a1.14,1.14,0,1,1-1.25-1A1.14,1.14,0,0,1,296,165.23Z" style="fill:#263238"></path><path d="M286.39,165.83a1.14,1.14,0,0,1-2.27.22,1.13,1.13,0,0,1,1-1.24A1.14,1.14,0,0,1,286.39,165.83Z" style="fill:#263238"></path><path d="M284.83,161.42l-2.34,2a1.62,1.62,0,0,1,.31-1.83A1.92,1.92,0,0,1,284.83,161.42Z" style="fill:#263238"></path><path d="M294.53,160.31l2.69,1.48a1.63,1.63,0,0,0-.67-1.73A1.92,1.92,0,0,0,294.53,160.31Z" style="fill:#263238"></path><path d="M289.31,186.21c-7.45,8.82-7.87,17.73-7.87,17.73h22.29c.72-9,5.75-17.36,5.75-17.36l2.76.25c-3.73,10.17-8.45,24.51,6.78,33.42a18.38,18.38,0,0,0,1,7.85,11.76,11.76,0,0,1-4.06,2.66c2.14,40.8,7.55,98.33,7.55,98.33-28.7,8.73-50.65-5.33-50.65-5.33,2-19.95,1.5-70.66,7-91.39-1.92-9.48-4.15-22.9-2.79-29.32a29.28,29.28,0,0,1,9.56-16.84Z" style="fill:#D91DA7"></path><path d="M289.31,186.21c-7.45,8.82-7.87,17.73-7.87,17.73h22.29c.72-9,5.75-17.36,5.75-17.36l2.76.25c-3.73,10.17-8.45,24.51,6.78,33.42a18.38,18.38,0,0,0,1,7.85,11.76,11.76,0,0,1-4.06,2.66c2.14,40.8,7.55,98.33,7.55,98.33-28.7,8.73-50.65-5.33-50.65-5.33,2-19.95,1.5-70.66,7-91.39-1.92-9.48-4.14-22.9-2.79-29.32a29.19,29.19,0,0,1,9.56-16.84Z" style="opacity:0.4"></path><polygon points="259.15 231.52 273.41 215.75 300.59 232.19 286.53 244.83 259.15 231.52" style="fill:#D91DA7"></polygon><polygon points="259.15 231.52 273.41 215.75 300.59 232.19 286.53 244.83 259.15 231.52" style="opacity:0.25"></polygon><polygon points="273.41 215.75 273.41 214.27 259 230.46 257.25 229.86 256.54 208.19 255.64 208.81 256.61 230.45 259.15 231.52 273.41 215.75" style="fill:#D91DA7"></polygon><polygon points="273.41 215.75 273.41 214.27 259 230.46 257.25 229.86 256.54 208.19 255.64 208.81 256.61 230.45 259.15 231.52 273.41 215.75" style="opacity:0.25"></polygon><polygon points="273.41 215.75 273.41 214.27 259 230.46 257.25 229.86 256.54 208.19 255.64 208.81 256.61 230.45 259.15 231.52 273.41 215.75" style="fill:#fff;opacity:0.25"></polygon><polygon points="273.41 214.27 300.17 230.53 300.59 232.19 273.41 215.75 273.41 214.27" style="fill:#D91DA7"></polygon><polygon points="273.41 214.27 300.17 230.53 300.59 232.19 273.41 215.75 273.41 214.27" style="opacity:0.25"></polygon><polygon points="273.41 214.27 300.17 230.53 300.59 232.19 273.41 215.75 273.41 214.27" style="fill:#fff;opacity:0.1"></polygon><polygon points="256.54 208.19 270.99 216.99 259 230.46 257.25 229.86 256.54 208.19" style="fill:#D91DA7"></polygon><polygon points="256.54 208.19 270.99 216.99 259 230.46 257.25 229.86 256.54 208.19" style="opacity:0.31"></polygon><polygon points="258.96 209.24 271.24 216.71 259 230.46 257.72 230.02 259.03 221.26 258.84 211.85 258.96 209.24" style="fill:#e0e0e0"></polygon><path d="M257.25,229.86c1.33-5.94,1.48-16.78.34-20l1.37-.61c1.43,5,.53,16.79-.85,20.92Z" style="fill:#f0f0f0"></path><path d="M259,230.46l13.85-15.56v-2c-6.33,4.76-12.57,12.68-14.53,17.34Z" style="fill:#f0f0f0"></path><polygon points="272.85 212.89 299.01 228.7 299.01 229.82 273.41 214.27 272.85 214.9 272.85 212.89" style="fill:#e0e0e0"></polygon><path d="M266.25,232.23l.33-.33,1.42.73-.34.33Z" style="fill:#D91DA7"></path><path d="M267.72,230.76l1.45.73-.29.27-1,.05.66.33-.34.33-1.42-.73.28-.28,1,0-.65-.33Z" style="fill:#D91DA7"></path><path d="M269.15,231.33l-.24-.29a1.26,1.26,0,0,0,.47-.27c.1-.1.1-.15.05-.17s-.6.54-1.14.27c-.26-.14-.33-.4,0-.72a1.42,1.42,0,0,1,.51-.32l.25.28a1.18,1.18,0,0,0-.39.23c-.1.1-.09.15,0,.18s.59-.55,1.13-.28c.27.13.33.41,0,.72A1.53,1.53,0,0,1,269.15,231.33Z" style="fill:#D91DA7"></path><path d="M269.43,229.62l-.3.3-.38-.19,1-.95.38.19-.31.3,1.1.54-.36.35Z" style="fill:#D91DA7"></path><path d="M271.36,228.78l-.09.1.37.18-.36.36-1.48-.74.5-.5a.9.9,0,0,1,1.05-.21c.22.11.31.26.27.43h.69l-.39.39Zm-.69-.39-.13.13.35.17.13-.13c.1-.1.08-.18,0-.23A.26.26,0,0,0,270.67,228.39Z" style="fill:#D91DA7"></path><path d="M271.74,228l-.83-.4.36-.36.82.39c.23.11.38.09.48,0s.08-.21-.15-.32l-.82-.39.36-.36.84.4c.46.22.53.54.19.88A1.07,1.07,0,0,1,271.74,228Z" style="fill:#D91DA7"></path><path d="M272.85,226.76a.56.56,0,0,1-.19-1,1.18,1.18,0,0,1,.81-.35l0,.37a.62.62,0,0,0-.42.16c-.15.15-.11.33.13.44a.55.55,0,0,0,.64-.08.27.27,0,0,0,.07-.32l.53-.1a.56.56,0,0,1-.19.64A1.3,1.3,0,0,1,272.85,226.76Z" style="fill:#D91DA7"></path><path d="M273.94,225.14l-.32.32-.41-.19,1-1,.41.19-.34.33,1.17.54-.39.38Z" style="fill:#D91DA7"></path><path d="M274.35,224.14l.38-.39,1.59.73-.39.39Z" style="fill:#D91DA7"></path><path d="M275.66,224a.58.58,0,0,1-.17-1,1.38,1.38,0,0,1,1.5-.28.58.58,0,0,1,.17,1A1.4,1.4,0,0,1,275.66,224Zm.93-.92a.63.63,0,0,0-.67.08c-.14.15-.11.33.14.44a.59.59,0,0,0,.66-.07C276.87,223.36,276.84,223.18,276.59,223.06Z" style="fill:#D91DA7"></path><path d="M277.5,221l1.64.73-.33.33-1.21.12.74.33-.39.39-1.63-.73.33-.33,1.2-.12-.75-.33Z" style="fill:#D91DA7"></path><path d="M273.06,231.46l-.69-.34.32.5-.16.15-.76,0,.66.33-.33.31-1.48-.75.29-.28,1.14.07-.46-.72.29-.29,1.52.74Z" style="fill:#D91DA7"></path><path d="M274.06,230.13l-.42.4.2.2-.38.36-1-1.21.36-.34,2,.28-.39.37Zm-.47-.08-.49-.09.28.29Z" style="fill:#D91DA7"></path><path d="M274.42,228l1.56.75-.32.3-1.14.06.71.34-.37.35-1.54-.74.3-.3,1.13-.07-.7-.34Z" style="fill:#D91DA7"></path><path d="M275.45,228.2l-.86-.41.38-.37.85.41c.24.11.4.09.51,0s.08-.22-.16-.33l-.85-.4.38-.37.87.41c.48.23.54.56.19.89A1.11,1.11,0,0,1,275.45,228.2Z" style="fill:#D91DA7"></path><path d="M278,226.43l-.45.42.2.21-.4.38-1.09-1.23.39-.38,2.13.26-.42.39Zm-.5-.08-.52-.08.29.3Z" style="fill:#D91DA7"></path><path d="M277.2,225.28l.39-.39,1.21.55.54-.52.44.2-1,.9Z" style="fill:#D91DA7"></path><g style="opacity:0.4"><path d="M266.25,232.23l.33-.33,1.42.73-.34.33Z" style="fill:#fff"></path><path d="M267.72,230.76l1.45.73-.29.27-1,.05.66.33-.34.33-1.42-.73.28-.28,1,0-.65-.33Z" style="fill:#fff"></path><path d="M269.15,231.33l-.24-.29a1.26,1.26,0,0,0,.47-.27c.1-.1.1-.15.05-.17s-.6.54-1.14.27c-.26-.14-.33-.4,0-.72a1.42,1.42,0,0,1,.51-.32l.25.28a1.18,1.18,0,0,0-.39.23c-.1.1-.09.15,0,.18s.59-.55,1.13-.28c.27.13.33.41,0,.72A1.53,1.53,0,0,1,269.15,231.33Z" style="fill:#fff"></path><path d="M269.43,229.62l-.3.3-.38-.19,1-.95.38.19-.31.3,1.1.54-.36.35Z" style="fill:#fff"></path><path d="M271.36,228.78l-.09.1.37.18-.36.36-1.48-.74.5-.5a.9.9,0,0,1,1.05-.21c.22.11.31.26.27.43h.69l-.39.39Zm-.69-.39-.13.13.35.17.13-.13c.1-.1.08-.18,0-.23A.26.26,0,0,0,270.67,228.39Z" style="fill:#fff"></path><path d="M271.74,228l-.83-.4.36-.36.82.39c.23.11.38.09.48,0s.08-.21-.15-.32l-.82-.39.36-.36.84.4c.46.22.53.54.19.88A1.07,1.07,0,0,1,271.74,228Z" style="fill:#fff"></path><path d="M272.85,226.76a.56.56,0,0,1-.19-1,1.18,1.18,0,0,1,.81-.35l0,.37a.62.62,0,0,0-.42.16c-.15.15-.11.33.13.44a.55.55,0,0,0,.64-.08.27.27,0,0,0,.07-.32l.53-.1a.56.56,0,0,1-.19.64A1.3,1.3,0,0,1,272.85,226.76Z" style="fill:#fff"></path><path d="M273.94,225.14l-.32.32-.41-.19,1-1,.41.19-.34.33,1.17.54-.39.38Z" style="fill:#fff"></path><path d="M274.35,224.14l.38-.39,1.59.73-.39.39Z" style="fill:#fff"></path><path d="M275.66,224a.58.58,0,0,1-.17-1,1.38,1.38,0,0,1,1.5-.28.58.58,0,0,1,.17,1A1.4,1.4,0,0,1,275.66,224Zm.93-.92a.63.63,0,0,0-.67.08c-.14.15-.11.33.14.44a.59.59,0,0,0,.66-.07C276.87,223.36,276.84,223.18,276.59,223.06Z" style="fill:#fff"></path><path d="M277.5,221l1.64.73-.33.33-1.21.12.74.33-.39.39-1.63-.73.33-.33,1.2-.12-.75-.33Z" style="fill:#fff"></path><path d="M273.06,231.46l-.69-.34.32.5-.16.15-.76,0,.66.33-.33.31-1.48-.75.29-.28,1.14.07-.46-.72.29-.29,1.52.74Z" style="fill:#fff"></path><path d="M274.06,230.13l-.42.4.2.2-.38.36-1-1.21.36-.34,2,.28-.39.37Zm-.47-.08-.49-.09.28.29Z" style="fill:#fff"></path><path d="M274.42,228l1.56.75-.32.3-1.14.06.71.34-.37.35-1.54-.74.3-.3,1.13-.07-.7-.34Z" style="fill:#fff"></path><path d="M275.45,228.2l-.86-.41.38-.37.85.41c.24.11.4.09.51,0s.08-.22-.16-.33l-.85-.4.38-.37.87.41c.48.23.54.56.19.89A1.11,1.11,0,0,1,275.45,228.2Z" style="fill:#fff"></path><path d="M278,226.43l-.45.42.2.21-.4.38-1.09-1.23.39-.38,2.13.26-.42.39Zm-.5-.08-.52-.08.29.3Z" style="fill:#fff"></path><path d="M277.2,225.28l.39-.39,1.21.55.54-.52.44.2-1,.9Z" style="fill:#fff"></path></g><path d="M313.84,187c-1.91,6.84,5.82,25.47,8.61,38.14-10.15,1.66-16.09,2.22-19.19,2.4a5.61,5.61,0,0,1-4.53-1.89l-.8-.9a5.62,5.62,0,0,0-2.29-1.55l-6.36-2.32a.44.44,0,0,0-.58.32h0a2.61,2.61,0,0,0,1,2.68l3.64,2.61c-4.28,2.94-11.36-2.43-12.74-.76a5.56,5.56,0,0,0,1.43,8,16.73,16.73,0,0,0,12.73,2.76l3.85-1c17.73.69,26.26,0,31.41-.92a6,6,0,0,0,4.95-6.6c-1.3-12.23-5.72-32.12-10-37.1C322,187.28,313.84,187,313.84,187Z" style="fill:#7a4847"></path></g><g id="freepik--Table--inject-212"><path d="M106.76,383.69h0a1.72,1.72,0,0,0-1-1.43,5.44,5.44,0,0,0-4.94,0,1.72,1.72,0,0,0-1,1.43h0a11.06,11.06,0,0,0,1.46,4.36h0a1.52,1.52,0,0,0,.5.47,3.35,3.35,0,0,0,3.05,0,1.34,1.34,0,0,0,.5-.47h0a11.06,11.06,0,0,0,1.46-4.36Z" style="fill:#455a64"></path><path d="M226.16,452.55h0a1.71,1.71,0,0,0-1-1.43,5.44,5.44,0,0,0-4.94,0,1.76,1.76,0,0,0-1,1.43h0a11.06,11.06,0,0,0,1.46,4.37h0a1.34,1.34,0,0,0,.5.47,3.39,3.39,0,0,0,3,0,1.47,1.47,0,0,0,.51-.47h0a10.9,10.9,0,0,0,1.46-4.37Z" style="fill:#455a64"></path><path d="M278.71,422.24h0a1.72,1.72,0,0,0-1-1.43,5.44,5.44,0,0,0-4.94,0,1.72,1.72,0,0,0-1,1.43h0a11.06,11.06,0,0,0,1.46,4.36h0a1.42,1.42,0,0,0,.5.47,3.35,3.35,0,0,0,3.05,0,1.34,1.34,0,0,0,.5-.47h0a10.94,10.94,0,0,0,1.46-4.36Z" style="fill:#455a64"></path><polygon points="222.67 454.89 95.15 381.13 95.15 290.93 222.67 364.51 222.67 454.89" style="fill:#fafafa"></polygon><polygon points="222.67 364.5 280.41 331.15 280.41 421.55 222.67 454.89 222.67 364.5" style="fill:#f5f5f5"></polygon><polygon points="226.33 366.55 85.43 285.25 149.22 248.41 290.13 329.7 226.33 366.55" style="fill:#D91DA7"></polygon><polygon points="226.33 373.4 85.43 291.91 85.43 285.25 226.33 366.55 226.33 373.4" style="fill:#D91DA7"></polygon><polygon points="226.33 366.54 290.13 329.69 290.13 336.56 226.33 373.4 226.33 366.54" style="fill:#D91DA7"></polygon><polygon points="226.33 366.55 85.43 285.25 149.22 248.41 290.13 329.7 226.33 366.55" style="fill:#fff;opacity:0.30000000000000004"></polygon><polygon points="226.33 366.54 290.13 329.69 290.13 336.56 226.33 373.4 226.33 366.54" style="fill:#fff;opacity:0.1"></polygon><polygon points="226.33 373.4 85.43 291.91 85.43 285.25 226.33 366.55 226.33 373.4" style="fill:#fff;opacity:0.2"></polygon><polygon points="149.22 248.41 290.12 329.7 290.13 329.69 290.13 336.56 226.33 373.4 85.43 291.91 85.43 285.25 149.22 248.41" style="fill:#fff;opacity:0.32"></polygon><polygon points="172.9 310.29 172.9 310.3 172.9 310.29 172.9 310.29" style="fill:#455a64"></polygon><path d="M270.3,326.73a.94.94,0,0,0-.47-.82l-51.39-29.65a2.84,2.84,0,0,0-2.82,0l-42.25,24.22a.94.94,0,0,0-.47.78h0v3.05h0a.94.94,0,0,0,.47.77l51.55,29.74a2.72,2.72,0,0,0,1.41.38,2.88,2.88,0,0,0,1.42-.38l42.08-24.3a.93.93,0,0,0,.45-.7h0v-.12h0v-3Zm-43.24,25.41a3,3,0,0,0,.69-.29A3,3,0,0,1,227.06,352.14Z" style="fill:#455a64"></path><path d="M270.3,326.73a.93.93,0,0,1-.47.81l-42.08,24.31a2.88,2.88,0,0,1-1.42.38v3a2.88,2.88,0,0,0,1.42-.38l42.08-24.3a.93.93,0,0,0,.45-.7h0v-.12h0v-3Z" style="fill:#fff;opacity:0.2"></path><path d="M224.92,351.85l-51.55-29.74a.94.94,0,0,1-.47-.79v3h0a.94.94,0,0,0,.47.77l51.55,29.74a2.72,2.72,0,0,0,1.41.38v-3A2.72,2.72,0,0,1,224.92,351.85Z" style="fill:#fff;opacity:0.4"></path><path d="M270.3,326.73a.94.94,0,0,0-.47-.82l-51.39-29.65a2.84,2.84,0,0,0-2.82,0l-42.25,24.22a.94.94,0,0,0-.47.78h0v3.05h0a.94.94,0,0,0,.47.77l51.55,29.74a2.72,2.72,0,0,0,1.41.38,2.88,2.88,0,0,0,1.42-.38l42.08-24.3a.93.93,0,0,0,.45-.7h0v-.12h0v-3Z" style="fill:#fff;opacity:0.1"></path><path d="M233.47,331.56c4.32,2.49,4.34,6.55.06,9a17.19,17.19,0,0,1-15.6,0c-4.31-2.48-4.33-6.54-.05-9S229.16,329.07,233.47,331.56Zm-14.67,8.53a15.29,15.29,0,0,0,13.85,0c3.8-2.21,3.78-5.81-.05-8a15.27,15.27,0,0,0-13.84,0c-3.8,2.21-3.78,5.81,0,8" style="fill:#e6e6e6"></path><path d="M206.57,316.81c4.31,2.49,4.33,6.54.05,9s-11.28,2.49-15.6,0-4.33-6.54,0-9S202.25,314.32,206.57,316.81Zm-14.67,8.52a15.27,15.27,0,0,0,13.84,0c3.81-2.21,3.78-5.81-.05-8a15.3,15.3,0,0,0-13.84,0c-3.8,2.21-3.78,5.81.05,8" style="fill:#e6e6e6"></path><path d="M253.77,319.86c4.32,2.49,4.34,6.55.06,9a17.22,17.22,0,0,1-15.6,0c-4.31-2.49-4.33-6.55,0-9S249.46,317.37,253.77,319.86Zm-14.67,8.53a15.29,15.29,0,0,0,13.85,0c3.8-2.21,3.78-5.81,0-8a15.27,15.27,0,0,0-13.84,0c-3.81,2.21-3.78,5.81,0,8" style="fill:#e6e6e6"></path><path d="M226.87,305.11c4.31,2.49,4.33,6.54,0,9s-11.28,2.49-15.6,0-4.33-6.54,0-9S222.55,302.62,226.87,305.11Zm-14.67,8.52a15.27,15.27,0,0,0,13.84,0c3.81-2.21,3.78-5.81,0-8a15.3,15.3,0,0,0-13.84,0c-3.8,2.22-3.78,5.81,0,8" style="fill:#e6e6e6"></path><path d="M245.38,309.89a10.27,10.27,0,0,1,.79,1A10.27,10.27,0,0,0,245.38,309.89Z" style="fill:#455a64"></path><path d="M208.58,309.8a15.12,15.12,0,0,1,3.68-2.91A15.12,15.12,0,0,0,208.58,309.8Z" style="fill:#455a64"></path><path d="M241.59,306.89c.51.29,1,.6,1.43.91C242.58,307.49,242.1,307.18,241.59,306.89Z" style="fill:#455a64"></path><path d="M246.21,310.94a8.62,8.62,0,0,1,.63,1A8.62,8.62,0,0,0,246.21,310.94Z" style="fill:#455a64"></path><path d="M244.35,308.86c.34.31.67.62,1,.94C245,309.48,244.69,309.17,244.35,308.86Z" style="fill:#455a64"></path><path d="M206.33,314.24a8.6,8.6,0,0,1,2-4.18A8.6,8.6,0,0,0,206.33,314.24Z" style="fill:#455a64"></path><path d="M243.16,307.91c.39.28.76.57,1.1.87C243.92,308.48,243.55,308.19,243.16,307.91Z" style="fill:#455a64"></path><path d="M206.24,315.39a8.29,8.29,0,0,1,.08-1.11A8.29,8.29,0,0,0,206.24,315.39Z" style="fill:#455a64"></path><path d="M243,307.8l.14.11Z" style="fill:#455a64"></path><path d="M208.37,310.06a2.65,2.65,0,0,1,.21-.26A2.65,2.65,0,0,0,208.37,310.06Z" style="fill:#455a64"></path><path d="M206.32,314.28s0,0,0,0S206.33,314.26,206.32,314.28Z" style="fill:#455a64"></path><path d="M213.91,316.14c7.16-4.16,18.84-4.16,26,0a12.46,12.46,0,0,1,4,3.43c2.83-3.89,1.5-8.56-4-11.73-7.2-4.15-18.88-4.16-26,0-5.42,3.15-6.7,7.79-3.89,11.66A12.48,12.48,0,0,1,213.91,316.14Z" style="fill:#263238"></path><path d="M214,322.93c7.2,4.16,18.89,4.16,26,0a12.37,12.37,0,0,0,3.89-3.36,12.46,12.46,0,0,0-4-3.43c-7.2-4.16-18.88-4.16-26,0A12.48,12.48,0,0,0,210,319.5,12.46,12.46,0,0,0,214,322.93Z" style="fill:#D91DA7"></path><path d="M214,322.93c7.2,4.16,18.89,4.16,26,0a12.37,12.37,0,0,0,3.89-3.36,12.46,12.46,0,0,0-4-3.43c-7.2-4.16-18.88-4.16-26,0A12.48,12.48,0,0,0,210,319.5,12.46,12.46,0,0,0,214,322.93Z" style="fill:#fff;opacity:0.2"></path><path d="M244.26,308.78l.09.08Z" style="fill:#455a64"></path><path d="M246.84,312v0Z" style="fill:#455a64"></path><path d="M247.71,315.39h0c0,3.08-2,6.16-6,8.5-8.06,4.68-21.23,4.68-29.35,0-4.06-2.35-6.1-5.42-6.11-8.5h0v17.42h0c0,3.07,2,6.15,6.11,8.49,8.12,4.69,21.29,4.69,29.35,0,4-2.34,6-5.41,6-8.49h0V315.39Z" style="fill:#263238"></path><path d="M247.71,315.39h0c0,3.08-2,6.16-6,8.5-8.06,4.68-21.23,4.68-29.35,0-4.06-2.35-6.1-5.42-6.11-8.5h0v17.42h0c0,3.07,2,6.15,6.11,8.49,8.12,4.69,21.29,4.69,29.35,0,4-2.34,6-5.41,6-8.49h0V315.39Z" style="fill:#fff;opacity:0.1"></path><path d="M246.17,310.87a.25.25,0,0,1,0,.07A.25.25,0,0,0,246.17,310.87Z" style="fill:#455a64"></path><path d="M245.31,309.8l.07.09Z" style="fill:#455a64"></path><path d="M212.35,323.89c8.12,4.68,21.29,4.68,29.35,0,4-2.34,6-5.42,6-8.5a7.42,7.42,0,0,0-.86-3.4v0a8.62,8.62,0,0,0-.63-1,.25.25,0,0,0,0-.07,10.27,10.27,0,0,0-.79-1l-.07-.09c-.29-.32-.62-.63-1-.94l-.09-.08c-.34-.3-.71-.59-1.1-.87l-.14-.11c-.44-.31-.92-.62-1.43-.91-8.11-4.68-21.27-4.68-29.33,0a15.12,15.12,0,0,0-3.68,2.91,2.65,2.65,0,0,0-.21.26,8.6,8.6,0,0,0-2,4.18s0,0,0,0a8.29,8.29,0,0,0-.08,1.11C206.25,318.47,208.29,321.54,212.35,323.89Zm1.56-16.05c7.16-4.16,18.84-4.15,26,0s7.25,10.93.09,15.09-18.84,4.16-26,0S206.75,312,213.91,307.84Z" style="fill:#263238"></path><path d="M212.35,323.89c8.12,4.68,21.29,4.68,29.35,0,4-2.34,6-5.42,6-8.5a7.42,7.42,0,0,0-.86-3.4v0a8.62,8.62,0,0,0-.63-1,.25.25,0,0,0,0-.07,10.27,10.27,0,0,0-.79-1l-.07-.09c-.29-.32-.62-.63-1-.94l-.09-.08c-.34-.3-.71-.59-1.1-.87l-.14-.11c-.44-.31-.92-.62-1.43-.91-8.11-4.68-21.27-4.68-29.33,0a15.12,15.12,0,0,0-3.68,2.91,2.65,2.65,0,0,0-.21.26,8.6,8.6,0,0,0-2,4.18s0,0,0,0a8.29,8.29,0,0,0-.08,1.11C206.25,318.47,208.29,321.54,212.35,323.89Zm1.56-16.05c7.16-4.16,18.84-4.15,26,0s7.25,10.93.09,15.09-18.84,4.16-26,0S206.75,312,213.91,307.84Z" style="fill:#fff;opacity:0.30000000000000004"></path><polygon points="250.9 334.48 239.64 327.98 239.64 329.66 250.9 336.16 254.28 334.24 254.28 332.55 250.9 334.48" style="fill:#e0e0e0"></polygon><polygon points="254.28 332.55 243.02 326.05 239.64 327.98 250.9 334.48 254.28 332.55" style="fill:#f0f0f0"></polygon><path d="M269.88,343.21a4.15,4.15,0,0,1-3.76,0l-15.77-9.11v2.35l15.77,9.11a4.15,4.15,0,0,0,3.76,0,1.33,1.33,0,0,0,.77-1.06h0v0h0v-2.32h0A1.3,1.3,0,0,1,269.88,343.21Z" style="fill:#263238"></path><path d="M269.88,343.21a4.15,4.15,0,0,1-3.76,0l-15.77-9.11v2.35l15.77,9.11a4.15,4.15,0,0,0,3.76,0,1.33,1.33,0,0,0,.77-1.06h0v0h0v-2.32h0A1.3,1.3,0,0,1,269.88,343.21Z" style="fill:#fff;opacity:0.1"></path><path d="M268.25,342.27a.43.43,0,0,0,0-.82l-1.24-.72a1.55,1.55,0,0,0-1.42,0c-.39.23-.39.59,0,.82l1.24.72A1.58,1.58,0,0,0,268.25,342.27Z" style="fill:#263238"></path><path d="M269.88,343.21a1.3,1.3,0,0,0,.77-1.07,1.32,1.32,0,0,0-.78-1.11l-15.77-9.1-3.75,2.17,15.77,9.11A4.15,4.15,0,0,0,269.88,343.21Zm-4.3-2.48a1.55,1.55,0,0,1,1.42,0l1.24.72a.43.43,0,0,1,0,.82,1.58,1.58,0,0,1-1.42,0l-1.24-.72C265.19,341.32,265.19,341,265.58,340.73Z" style="fill:#263238"></path><path d="M269.88,343.21a1.3,1.3,0,0,0,.77-1.07,1.32,1.32,0,0,0-.78-1.11l-15.77-9.1-3.75,2.17,15.77,9.11A4.15,4.15,0,0,0,269.88,343.21Zm-4.3-2.48a1.55,1.55,0,0,1,1.42,0l1.24.72a.43.43,0,0,1,0,.82,1.58,1.58,0,0,1-1.42,0l-1.24-.72C265.19,341.32,265.19,341,265.58,340.73Z" style="fill:#fff;opacity:0.30000000000000004"></path><path d="M239.89,308.23c.34-2.33,1-4.61,1.29-6.94a25.26,25.26,0,0,0-5.46-19.16,28,28,0,0,1-3.41-4.38c-.88-1.64-1.45-3.83-.49-5.42-1.92,1.33-2,4.17-1.38,6.42s1.9,4.36,2,6.7c.14,3.43-2.21,6.48-4.94,8.56s-5.91,3.51-8.56,5.69a19.89,19.89,0,0,0-6.41,19.81,11.94,11.94,0,0,0,2.42,1.78,24.6,24.6,0,0,0,12.1,2.87,24.32,24.32,0,0,0,12.05-2.86,11.84,11.84,0,0,0,2.34-1.73A23.8,23.8,0,0,1,239.89,308.23Z" style="fill:#fff;opacity:0.30000000000000004"></path><path d="M100.2,233.45v51.67h0v.11h0a.86.86,0,0,0,.43.66l39.64,22.89a2.63,2.63,0,0,0,1.33.36,2.7,2.7,0,0,0,1.34-.36l40.26-23.28a.89.89,0,0,0,.44-.73h0V233h0a.86.86,0,0,0-.45-.73l-39.79-22.82a2.66,2.66,0,0,0-2.66,0l-40.11,23.19a.89.89,0,0,0-.44.77Zm40.08,23.67a2.6,2.6,0,0,0,.65.26A2.6,2.6,0,0,1,140.28,257.12Z" style="fill:#263238"></path><path d="M100.2,233.45a.89.89,0,0,0,.44.77l39.64,22.9a2.73,2.73,0,0,0,1.33.35v51.67a2.63,2.63,0,0,1-1.33-.36l-39.64-22.89a.86.86,0,0,1-.43-.66h0v-.11h0V233.45Z" style="fill:#fff;opacity:0.1"></path><path d="M143,257.12l40.26-23.28a.91.91,0,0,0,.44-.75v51.67h0a.89.89,0,0,1-.44.73L143,308.78a2.7,2.7,0,0,1-1.34.36V257.47A2.68,2.68,0,0,0,143,257.12Z" style="fill:#fff;opacity:0.2"></path><path d="M112.17,232.48,141,215.82a2.22,2.22,0,0,1,2.23,0l28.43,16.3a1.12,1.12,0,0,1,0,1.94l-28.91,16.72a2.24,2.24,0,0,1-2.24,0l-28.32-16.36A1.13,1.13,0,0,1,112.17,232.48Z" style="fill:#37474f"></path><path d="M141.61,250a1.23,1.23,0,0,1-.56-.15l-28.32-16.36,28.81-16.66a1.09,1.09,0,0,1,.56-.15,1.12,1.12,0,0,1,.56.15l28.42,16.3-28.91,16.72A1.2,1.2,0,0,1,141.61,250Z" style="fill:#e0e0e0"></path><path d="M141.61,250a1.23,1.23,0,0,1-.56-.15l-28.32-16.36,28.81-16.66a1.09,1.09,0,0,1,.56-.15,1.12,1.12,0,0,1,.56.15l28.42,16.3-28.91,16.72A1.2,1.2,0,0,1,141.61,250Z" style="opacity:0.2"></path><path d="M145.88,275.67l33.62-19.35a1.12,1.12,0,0,1,1.68,1v24.85a2.25,2.25,0,0,1-1.12,1.94l-33.62,19.35a1.12,1.12,0,0,1-1.68-1V277.61A2.22,2.22,0,0,1,145.88,275.67Z" style="fill:#263238"></path><path d="M145.88,258.08l33.62-19.34a1.12,1.12,0,0,1,1.68,1V248a2.25,2.25,0,0,1-1.12,1.94l-33.62,19.34a1.12,1.12,0,0,1-1.68-1V260A2.25,2.25,0,0,1,145.88,258.08Z" style="fill:#263238"></path><polygon points="141.61 273.85 183.65 249.68 183.65 251.22 141.61 275.39 141.61 273.85" style="opacity:0.2"></polygon><polygon points="141.61 273.85 100.2 250.03 100.2 251.57 141.61 275.39 141.61 273.85" style="opacity:0.2"></polygon><polygon points="125.66 269.53 113.85 262.71 109.55 265.36 121.36 272.18 125.66 269.53" style="fill:#e0e0e0"></polygon><polygon points="109.55 265.36 109.55 267.98 121.36 274.8 121.36 272.18 109.55 265.36" style="fill:#e0e0e0"></polygon><polygon points="121.36 272.18 125.66 269.53 125.66 276.06 121.36 274.8 121.36 272.18" style="fill:#e0e0e0"></polygon><polygon points="109.55 265.36 109.55 267.98 121.36 274.8 121.36 272.18 109.55 265.36" style="opacity:0.30000000000000004"></polygon><polygon points="121.36 272.18 125.66 269.53 125.66 276.06 121.36 274.8 121.36 272.18" style="opacity:0.2"></polygon><path d="M147.59,263.17l.57-.93.16.12-.24,2.92a1.44,1.44,0,0,1-.47.78l-.19-.69Z" style="fill:#D91DA7"></path><path d="M148.22,258.53c.22-.07.35,0,.38.27l-.23,2.93-.19.3-.47-.32.18-2.2Z" style="fill:#D91DA7"></path><path d="M152.22,257l-2.07,1.2-.67.08a1.5,1.5,0,0,1,.47-.77l2.6-1.5Z" style="fill:#D91DA7"></path><polygon points="154.47 257.8 153.9 258.73 153.74 258.63 153.96 255.91 154.63 255.82 154.47 257.8" style="fill:#D91DA7"></polygon><path d="M156.72,254.41l-2.07,1.2-.67.08a1.45,1.45,0,0,1,.48-.77l2.59-1.49Z" style="fill:#D91DA7"></path><path d="M157.22,253.33c.23-.07.36,0,.4.26l-.24,2.93-.19.31-.47-.33.17-2.19Z" style="fill:#D91DA7"></path><path d="M156.6,258l.57-.93.16.11-.23,2.93a1.51,1.51,0,0,1-.48.77l-.2-.68Z" style="fill:#D91DA7"></path><polygon points="154.35 259.27 154.19 261.25 153.47 261.97 153.69 259.26 153.88 258.94 154.35 259.27" style="fill:#D91DA7"></polygon><path d="M154.17,261.47l2.08-1.2.2.68-2.6,1.51c-.23.06-.36,0-.39-.28Z" style="fill:#D91DA7"></path><g style="opacity:0.2"><path d="M147.59,263.17l.57-.93.16.12-.24,2.92a1.44,1.44,0,0,1-.47.78l-.19-.69Z"></path><path d="M148.22,258.53c.22-.07.35,0,.38.27l-.23,2.93-.19.3-.47-.32.18-2.2Z"></path><path d="M152.22,257l-2.07,1.2-.67.08a1.5,1.5,0,0,1,.47-.77l2.6-1.5Z"></path><polygon points="154.47 257.8 153.9 258.73 153.74 258.63 153.96 255.91 154.63 255.82 154.47 257.8"></polygon><path d="M156.72,254.41l-2.07,1.2-.67.08a1.45,1.45,0,0,1,.48-.77l2.59-1.49Z"></path><path d="M157.22,253.33c.23-.07.36,0,.4.26l-.24,2.93-.19.31-.47-.33.17-2.19Z"></path><path d="M156.6,258l.57-.93.16.11-.23,2.93a1.51,1.51,0,0,1-.48.77l-.2-.68Z"></path><polygon points="154.35 259.27 154.19 261.25 153.47 261.97 153.69 259.26 153.88 258.94 154.35 259.27"></polygon><path d="M154.17,261.47l2.08-1.2.2.68-2.6,1.51c-.23.06-.36,0-.39-.28Z"></path><path d="M152.09,260.57l.57-.93.16.12-.23,2.92a1.5,1.5,0,0,1-.47.77l-.2-.68Z"></path><path d="M149.67,264.07l2.08-1.2.19.69-2.6,1.5c-.23.06-.35,0-.39-.28Z"></path><path d="M152.72,255.93c.22-.07.36,0,.39.27l-.23,2.92-.19.31-.48-.32.18-2.2Z"></path><polygon points="149.56 261.34 149.94 260.72 152.19 259.42 152.5 259.64 152.12 260.26 149.87 261.56 149.56 261.34"></polygon><polygon points="149.84 261.87 149.68 263.86 148.97 264.57 149.18 261.86 149.38 261.54 149.84 261.87"></polygon><polygon points="149.96 260.4 149.39 261.33 149.23 261.23 149.45 258.51 150.12 258.42 149.96 260.4"></polygon></g><g style="opacity:0.2"><path d="M147.59,263.17l.57-.93.16.12-.24,2.92a1.44,1.44,0,0,1-.47.78l-.19-.69Z" style="fill:#fff"></path><path d="M148.22,258.53c.22-.07.35,0,.38.27l-.23,2.93-.19.3-.47-.32.18-2.2Z" style="fill:#fff"></path><path d="M152.22,257l-2.07,1.2-.67.08a1.5,1.5,0,0,1,.47-.77l2.6-1.5Z" style="fill:#fff"></path><g style="isolation:isolate"><path d="M152.09,260.57l.57-.93.16.12-.23,2.92a1.5,1.5,0,0,1-.47.77l-.2-.68Z" style="fill:#fff"></path><path d="M149.67,264.07l2.08-1.2.19.69-2.6,1.5c-.23.06-.35,0-.39-.28Z" style="fill:#fff"></path><path d="M152.72,255.93c.22-.07.36,0,.39.27l-.23,2.92-.19.31-.48-.32.18-2.2Z" style="fill:#fff"></path><polygon points="149.56 261.34 149.94 260.72 152.19 259.42 152.5 259.64 152.12 260.26 149.87 261.56 149.56 261.34" style="fill:#fff"></polygon><polygon points="149.84 261.87 149.68 263.86 148.97 264.57 149.18 261.86 149.38 261.54 149.84 261.87" style="fill:#fff"></polygon><polygon points="149.96 260.4 149.39 261.33 149.23 261.23 149.45 258.51 150.12 258.42 149.96 260.4" style="fill:#fff"></polygon></g><polygon points="154.47 257.8 153.9 258.73 153.74 258.63 153.96 255.91 154.63 255.82 154.47 257.8" style="fill:#fff"></polygon><path d="M156.72,254.41l-2.07,1.2-.67.08a1.45,1.45,0,0,1,.48-.77l2.59-1.49Z" style="fill:#fff"></path><path d="M157.22,253.33c.23-.07.36,0,.4.26l-.24,2.93-.19.31-.47-.33.17-2.19Z" style="fill:#fff"></path><path d="M156.6,258l.57-.93.16.11-.23,2.93a1.51,1.51,0,0,1-.48.77l-.2-.68Z" style="fill:#fff"></path><polygon points="154.35 259.27 154.19 261.25 153.47 261.97 153.69 259.26 153.88 258.94 154.35 259.27" style="fill:#fff"></polygon><path d="M154.17,261.47l2.08-1.2.2.68-2.6,1.51c-.23.06-.36,0-.39-.28Z" style="fill:#fff"></path></g><path d="M165.46,249.17c.26-.15.48,0,.48.28v2a1.05,1.05,0,0,1-.48.83l-1.72,1c-.27.16-.49,0-.49-.28v-2a1.08,1.08,0,0,1,.49-.84Z" style="fill:#D91DA7"></path><path d="M169.09,251.23c.27-.15.48,0,.48.28v2a1,1,0,0,1-.48.83l-1.73,1c-.27.16-.48,0-.48-.28v-2a1.08,1.08,0,0,1,.48-.84Z" style="fill:#D91DA7"></path><path d="M169.08,247.08c.27-.15.48,0,.48.28v2a1.08,1.08,0,0,1-.48.83l-1.73,1c-.27.15-.48,0-.48-.28v-2a1,1,0,0,1,.48-.83Z" style="fill:#D91DA7"></path><path d="M172.71,245c.26-.15.48,0,.48.29v2a1.1,1.1,0,0,1-.47.84l-1.73,1c-.27.16-.49,0-.49-.27v-2A1,1,0,0,1,171,246Z" style="fill:#D91DA7"></path><path d="M176.35,247a.3.3,0,0,1,.48.28v2a1,1,0,0,1-.48.83l-1.72,1c-.27.16-.49,0-.49-.27v-2a1.08,1.08,0,0,1,.49-.84Z" style="fill:#D91DA7"></path><path d="M176.33,242.89c.27-.15.48,0,.48.28v2a1.05,1.05,0,0,1-.48.83l-1.73,1c-.27.16-.48,0-.48-.28v-2a1.08,1.08,0,0,1,.48-.84Z" style="fill:#D91DA7"></path><path d="M165.47,253.32a.3.3,0,0,1,.48.28v2a1.09,1.09,0,0,1-.47.84l-1.73,1c-.27.16-.49,0-.49-.27v-2a1,1,0,0,1,.48-.84Z" style="fill:#D91DA7"></path><path d="M172.72,249.14c.26-.15.48,0,.48.28v2a1.08,1.08,0,0,1-.48.84l-1.73,1c-.27.15-.49,0-.49-.28v-2a1,1,0,0,1,.48-.83Z" style="fill:#D91DA7"></path><g style="opacity:0.2"><path d="M165.46,249.17c.26-.15.48,0,.48.28v2a1.05,1.05,0,0,1-.48.83l-1.72,1c-.27.16-.49,0-.49-.28v-2a1.08,1.08,0,0,1,.49-.84Z"></path><path d="M169.09,251.23c.27-.15.48,0,.48.28v2a1,1,0,0,1-.48.83l-1.73,1c-.27.16-.48,0-.48-.28v-2a1.08,1.08,0,0,1,.48-.84Z"></path><path d="M169.08,247.08c.27-.15.48,0,.48.28v2a1.08,1.08,0,0,1-.48.83l-1.73,1c-.27.15-.48,0-.48-.28v-2a1,1,0,0,1,.48-.83Z"></path><path d="M172.71,245c.26-.15.48,0,.48.29v2a1.1,1.1,0,0,1-.47.84l-1.73,1c-.27.16-.49,0-.49-.27v-2A1,1,0,0,1,171,246Z"></path><path d="M176.35,247a.3.3,0,0,1,.48.28v2a1,1,0,0,1-.48.83l-1.72,1c-.27.16-.49,0-.49-.27v-2a1.08,1.08,0,0,1,.49-.84Z"></path><path d="M176.33,242.89c.27-.15.48,0,.48.28v2a1.05,1.05,0,0,1-.48.83l-1.73,1c-.27.16-.48,0-.48-.28v-2a1.08,1.08,0,0,1,.48-.84Z"></path><path d="M165.47,253.32a.3.3,0,0,1,.48.28v2a1.09,1.09,0,0,1-.47.84l-1.73,1c-.27.16-.49,0-.49-.27v-2a1,1,0,0,1,.48-.84Z"></path><path d="M172.72,249.14c.26-.15.48,0,.48.28v2a1.08,1.08,0,0,1-.48.84l-1.73,1c-.27.15-.49,0-.49-.28v-2a1,1,0,0,1,.48-.83Z"></path></g><g style="opacity:0.2"><path d="M165.46,249.17c.26-.15.48,0,.48.28v2a1.05,1.05,0,0,1-.48.83l-1.72,1c-.27.16-.49,0-.49-.28v-2a1.08,1.08,0,0,1,.49-.84Z" style="fill:#fff"></path><path d="M169.09,251.23c.27-.15.48,0,.48.28v2a1,1,0,0,1-.48.83l-1.73,1c-.27.16-.48,0-.48-.28v-2a1.08,1.08,0,0,1,.48-.84Z" style="fill:#fff"></path><path d="M169.08,247.08c.27-.15.48,0,.48.28v2a1.08,1.08,0,0,1-.48.83l-1.73,1c-.27.15-.48,0-.48-.28v-2a1,1,0,0,1,.48-.83Z" style="fill:#fff"></path><path d="M172.71,245c.26-.15.48,0,.48.29v2a1.1,1.1,0,0,1-.47.84l-1.73,1c-.27.16-.49,0-.49-.27v-2A1,1,0,0,1,171,246Z" style="fill:#fff"></path><path d="M176.35,247a.3.3,0,0,1,.48.28v2a1,1,0,0,1-.48.83l-1.72,1c-.27.16-.49,0-.49-.27v-2a1.08,1.08,0,0,1,.49-.84Z" style="fill:#fff"></path><path d="M176.33,242.89c.27-.15.48,0,.48.28v2a1.05,1.05,0,0,1-.48.83l-1.73,1c-.27.16-.48,0-.48-.28v-2a1.08,1.08,0,0,1,.48-.84Z" style="fill:#fff"></path><path d="M165.47,253.32a.3.3,0,0,1,.48.28v2a1.09,1.09,0,0,1-.47.84l-1.73,1c-.27.16-.49,0-.49-.27v-2a1,1,0,0,1,.48-.84Z" style="fill:#fff"></path><path d="M172.72,249.14c.26-.15.48,0,.48.28v2a1.08,1.08,0,0,1-.48.84l-1.73,1c-.27.15-.49,0-.49-.28v-2a1,1,0,0,1,.48-.83Z" style="fill:#fff"></path></g><path d="M145.28,224.37a.59.59,0,0,1,0,1.12L132.35,233a2.12,2.12,0,0,1-1.93,0,.59.59,0,0,1,0-1.12l12.93-7.51A2.12,2.12,0,0,1,145.28,224.37Z" style="fill:#37474f"></path><path d="M148.37,226.16a.58.58,0,0,1,0,1.11l-12.93,7.52a2.12,2.12,0,0,1-1.93,0,.59.59,0,0,1,0-1.12l12.93-7.51A2.12,2.12,0,0,1,148.37,226.16Z" style="fill:#37474f"></path><path d="M154.55,229.72c.53.31.54.81,0,1.12l-12.93,7.52a2.18,2.18,0,0,1-1.93,0,.59.59,0,0,1,0-1.12l12.93-7.52A2.18,2.18,0,0,1,154.55,229.72Z" style="fill:#37474f"></path><path d="M151.46,227.94a.59.59,0,0,1,0,1.12l-12.93,7.51a2.12,2.12,0,0,1-1.93,0,.59.59,0,0,1,0-1.12l12.93-7.51A2.12,2.12,0,0,1,151.46,227.94Z" style="fill:#37474f"></path><path d="M211.56,289.06a1.27,1.27,0,0,1-.65,1.1l-33.77,19.53a2.59,2.59,0,0,1-2.61,0l-19.45-11.23-10.32-6v1.4l9.11,5.26,20.66,11.94a2.59,2.59,0,0,0,2.61,0l33.77-19.53a1.25,1.25,0,0,0,.65-1.1h0v-1.39Z" style="fill:#263238"></path><path d="M174.53,309.69a2.59,2.59,0,0,0,2.61,0l33.77-19.53a1.31,1.31,0,0,0,0-2.26l-29.73-17.09-13.44-7.72-21.86,12.58a2.22,2.22,0,0,0-1.12,1.94v14.88l10.32,6Z" style="fill:#263238"></path><path d="M174.53,309.69a2.59,2.59,0,0,0,2.61,0l33.77-19.53a1.31,1.31,0,0,0,0-2.26l-29.73-17.09-13.44-7.72-21.86,12.58a2.22,2.22,0,0,0-1.12,1.94v14.88l10.32,6Z" style="fill:#fff;opacity:0.4"></path><path d="M211.56,289.06a1.27,1.27,0,0,1-.65,1.1l-33.77,19.53a2.59,2.59,0,0,1-2.61,0l-19.45-11.23-10.32-6v1.4l9.11,5.26,20.66,11.94a2.59,2.59,0,0,0,2.61,0l33.77-19.53a1.25,1.25,0,0,0,.65-1.1h0v-1.39Z" style="fill:#fff;opacity:0.30000000000000004"></path><path d="M187.74,268.76l-10.74.78-10.74-.78c0,3.07,2.71,8.51,3.75,10.07l.08.11a2.26,2.26,0,0,0,.16.21h0a5.49,5.49,0,0,0,1.45,1.17,11.69,11.69,0,0,0,10.62,0,4.52,4.52,0,0,0,1.88-1.85C185.38,276.57,187.74,271.63,187.74,268.76Z" style="fill:#263238"></path><path d="M187.74,268.76l-10.74.78-10.74-.78c0,3.07,2.71,8.51,3.75,10.07l.08.11a2.26,2.26,0,0,0,.16.21h0a5.49,5.49,0,0,0,1.45,1.17,11.69,11.69,0,0,0,10.62,0,4.52,4.52,0,0,0,1.88-1.85C185.38,276.57,187.74,271.63,187.74,268.76Z" style="fill:#fff;opacity:0.1"></path><path d="M185.79,270.92c1.46-2,.77-4.43-2.07-6.07a14.91,14.91,0,0,0-13.49,0c-2.8,1.63-3.47,4-2,6q.18.24.39.48a4.62,4.62,0,0,1,2.37-2.78,13.25,13.25,0,0,1,12,0,4.64,4.64,0,0,1,2.41,2.81A3.64,3.64,0,0,0,185.79,270.92Z" style="fill:#263238"></path><path d="M183,268.59a13.25,13.25,0,0,0-12,0,4.62,4.62,0,0,0-2.37,2.78,7.15,7.15,0,0,0,1.67,1.29,14.88,14.88,0,0,0,13.49,0,7,7,0,0,0,1.62-1.27A4.64,4.64,0,0,0,183,268.59Z" style="fill:#f28f8f"></path><path d="M183,268.59a13.25,13.25,0,0,0-12,0,4.62,4.62,0,0,0-2.37,2.78,7.15,7.15,0,0,0,1.67,1.29,14.88,14.88,0,0,0,13.49,0,7,7,0,0,0,1.62-1.27A4.64,4.64,0,0,0,183,268.59Z" style="opacity:0.30000000000000004"></path><path d="M183,268.59a13.25,13.25,0,0,0-12,0,4.62,4.62,0,0,0-2.37,2.78,7.15,7.15,0,0,0,1.67,1.29,14.88,14.88,0,0,0,13.49,0,7,7,0,0,0,1.62-1.27A4.64,4.64,0,0,0,183,268.59Z" style="fill:#fff;opacity:0.30000000000000004"></path><path d="M169.42,273.16a16.78,16.78,0,0,0,15.21,0c2.08-1.21,3.12-2.8,3.11-4.4a3.89,3.89,0,0,0-.44-1.76h0a4.15,4.15,0,0,0-.32-.53l0,0a6.54,6.54,0,0,0-.41-.51l0-.05c-.15-.16-.32-.32-.5-.48l0-.05c-.18-.15-.37-.3-.57-.44l-.08-.06a8.57,8.57,0,0,0-.74-.47,16.74,16.74,0,0,0-15.19,0,7.89,7.89,0,0,0-1.91,1.5l-.1.14a4.3,4.3,0,0,0-1.06,2.16v0a3.77,3.77,0,0,0,0,.58C166.27,270.35,167.32,272,169.42,273.16Zm.81-8.31a14.91,14.91,0,0,1,13.49,0c3.74,2.16,3.76,5.66.05,7.82a14.88,14.88,0,0,1-13.49,0C166.55,270.51,166.53,267,170.23,264.85Z" style="fill:#263238"></path><path d="M169.42,273.16a16.78,16.78,0,0,0,15.21,0c2.08-1.21,3.12-2.8,3.11-4.4a3.89,3.89,0,0,0-.44-1.76h0a4.15,4.15,0,0,0-.32-.53l0,0a6.54,6.54,0,0,0-.41-.51l0-.05c-.15-.16-.32-.32-.5-.48l0-.05c-.18-.15-.37-.3-.57-.44l-.08-.06a8.57,8.57,0,0,0-.74-.47,16.74,16.74,0,0,0-15.19,0,7.89,7.89,0,0,0-1.91,1.5l-.1.14a4.3,4.3,0,0,0-1.06,2.16v0a3.77,3.77,0,0,0,0,.58C166.27,270.35,167.32,272,169.42,273.16Zm.81-8.31a14.91,14.91,0,0,1,13.49,0c3.74,2.16,3.76,5.66.05,7.82a14.88,14.88,0,0,1-13.49,0C166.55,270.51,166.53,267,170.23,264.85Z" style="fill:#fff;opacity:0.30000000000000004"></path><path d="M182.86,265.89c.15-1.06.45-2.1.59-3.17A11.46,11.46,0,0,0,181,254a14.09,14.09,0,0,1-1.55-2,2.63,2.63,0,0,1-.22-2.48,2.64,2.64,0,0,0-.63,2.93,13.73,13.73,0,0,1,.91,3.06,5,5,0,0,1-2.26,3.91c-1.25,1-2.7,1.6-3.91,2.6a9.09,9.09,0,0,0-2.93,9,6.14,6.14,0,0,0,1.11.82,12.26,12.26,0,0,0,11,0,5.62,5.62,0,0,0,1.06-.79A10.87,10.87,0,0,1,182.86,265.89Z" style="fill:#fff;opacity:0.2"></path><path d="M169.32,280.07l-10.74.78-10.74-.78c0,3.07,2.71,8.51,3.75,10.07l.08.11a2.26,2.26,0,0,0,.16.21h0a5.49,5.49,0,0,0,1.45,1.17,11.69,11.69,0,0,0,10.62,0,4.52,4.52,0,0,0,1.88-1.85C167,287.88,169.32,282.94,169.32,280.07Z" style="fill:#263238"></path><path d="M169.32,280.07l-10.74.78-10.74-.78c0,3.07,2.71,8.51,3.75,10.07l.08.11a2.26,2.26,0,0,0,.16.21h0a5.49,5.49,0,0,0,1.45,1.17,11.69,11.69,0,0,0,10.62,0,4.52,4.52,0,0,0,1.88-1.85C167,287.88,169.32,282.94,169.32,280.07Z" style="fill:#fff;opacity:0.1"></path><path d="M167.37,282.23c1.46-2,.77-4.43-2.07-6.07a14.91,14.91,0,0,0-13.49,0c-2.8,1.63-3.47,4-2,6q.18.24.39.48a4.62,4.62,0,0,1,2.37-2.78,13.25,13.25,0,0,1,12,0,4.64,4.64,0,0,1,2.41,2.81A3.64,3.64,0,0,0,167.37,282.23Z" style="fill:#263238"></path><path d="M164.56,279.9a13.25,13.25,0,0,0-12,0,4.62,4.62,0,0,0-2.37,2.78,7.15,7.15,0,0,0,1.67,1.29,14.88,14.88,0,0,0,13.49,0,7,7,0,0,0,1.62-1.27A4.64,4.64,0,0,0,164.56,279.9Z" style="fill:#D91DA7"></path><path d="M164.56,279.9a13.25,13.25,0,0,0-12,0,4.62,4.62,0,0,0-2.37,2.78,7.15,7.15,0,0,0,1.67,1.29,14.88,14.88,0,0,0,13.49,0,7,7,0,0,0,1.62-1.27A4.64,4.64,0,0,0,164.56,279.9Z" style="opacity:0.30000000000000004"></path><path d="M164.56,279.9a13.25,13.25,0,0,0-12,0,4.62,4.62,0,0,0-2.37,2.78,7.15,7.15,0,0,0,1.67,1.29,14.88,14.88,0,0,0,13.49,0,7,7,0,0,0,1.62-1.27A4.64,4.64,0,0,0,164.56,279.9Z" style="fill:#fff;opacity:0.30000000000000004"></path><path d="M151,284.47a16.78,16.78,0,0,0,15.21,0c2.08-1.21,3.12-2.8,3.11-4.4a3.89,3.89,0,0,0-.44-1.76h0a4.15,4.15,0,0,0-.32-.53l0,0c-.13-.18-.27-.34-.41-.51l0-.05c-.15-.16-.32-.32-.5-.48l0-.05c-.18-.15-.37-.3-.57-.44l-.08-.06a8.57,8.57,0,0,0-.74-.47,16.74,16.74,0,0,0-15.19,0,7.89,7.89,0,0,0-1.91,1.5l-.1.14a4.3,4.3,0,0,0-1.06,2.16v0a3.77,3.77,0,0,0,0,.58C147.85,281.66,148.9,283.26,151,284.47Zm.81-8.31a14.91,14.91,0,0,1,13.49,0c3.74,2.16,3.76,5.66,0,7.82a14.88,14.88,0,0,1-13.49,0C148.13,281.82,148.11,278.32,151.81,276.16Z" style="fill:#263238"></path><path d="M151,284.47a16.78,16.78,0,0,0,15.21,0c2.08-1.21,3.12-2.8,3.11-4.4a3.89,3.89,0,0,0-.44-1.76h0a4.15,4.15,0,0,0-.32-.53l0,0c-.13-.18-.27-.34-.41-.51l0-.05c-.15-.16-.32-.32-.5-.48l0-.05c-.18-.15-.37-.3-.57-.44l-.08-.06a8.57,8.57,0,0,0-.74-.47,16.74,16.74,0,0,0-15.19,0,7.89,7.89,0,0,0-1.91,1.5l-.1.14a4.3,4.3,0,0,0-1.06,2.16v0a3.77,3.77,0,0,0,0,.58C147.85,281.66,148.9,283.26,151,284.47Zm.81-8.31a14.91,14.91,0,0,1,13.49,0c3.74,2.16,3.76,5.66,0,7.82a14.88,14.88,0,0,1-13.49,0C148.13,281.82,148.11,278.32,151.81,276.16Z" style="fill:#fff;opacity:0.30000000000000004"></path><path d="M164.61,276.57c.15-1.07.45-2.11.59-3.17a11.53,11.53,0,0,0-2.49-8.75,12.51,12.51,0,0,1-1.56-2,2.61,2.61,0,0,1-.22-2.47,2.64,2.64,0,0,0-.63,2.93,13.43,13.43,0,0,1,.91,3.06,5,5,0,0,1-2.26,3.91c-1.24.94-2.7,1.6-3.91,2.59a9.1,9.1,0,0,0-2.93,9.05,6.12,6.12,0,0,0,1.11.81,11.19,11.19,0,0,0,5.53,1.31,11.08,11.08,0,0,0,5.5-1.31,5.6,5.6,0,0,0,1.07-.79A10.73,10.73,0,0,1,164.61,276.57Z" style="fill:#fff;opacity:0.2"></path><path d="M186.09,291.41l-10.74.77-10.75-.77c0,3.07,2.71,8.51,3.76,10.07l.07.1a2.46,2.46,0,0,0,.17.22h0a5.27,5.27,0,0,0,1.44,1.18,11.75,11.75,0,0,0,10.63,0,4.65,4.65,0,0,0,1.88-1.86C183.72,299.22,186.09,294.28,186.09,291.41Z" style="fill:#263238"></path><path d="M186.09,291.41l-10.74.77-10.75-.77c0,3.07,2.71,8.51,3.76,10.07l.07.1a2.46,2.46,0,0,0,.17.22h0a5.27,5.27,0,0,0,1.44,1.18,11.75,11.75,0,0,0,10.63,0,4.65,4.65,0,0,0,1.88-1.86C183.72,299.22,186.09,294.28,186.09,291.41Z" style="fill:#fff;opacity:0.1"></path><path d="M184.13,293.57c1.47-2,.78-4.43-2.06-6.07a14.85,14.85,0,0,0-13.49,0c-2.81,1.63-3.47,4-2,6a4.33,4.33,0,0,0,.4.47,4.63,4.63,0,0,1,2.37-2.77,13.2,13.2,0,0,1,12,0,4.67,4.67,0,0,1,2.42,2.81Q184,293.81,184.13,293.57Z" style="fill:#263238"></path><path d="M181.32,291.24a13.2,13.2,0,0,0-12,0A4.63,4.63,0,0,0,167,294a6.85,6.85,0,0,0,1.66,1.3,14.87,14.87,0,0,0,13.5,0,7,7,0,0,0,1.62-1.26A4.67,4.67,0,0,0,181.32,291.24Z" style="fill:#fff"></path><path d="M181.32,291.24a13.2,13.2,0,0,0-12,0A4.63,4.63,0,0,0,167,294a6.85,6.85,0,0,0,1.66,1.3,14.87,14.87,0,0,0,13.5,0,7,7,0,0,0,1.62-1.26A4.67,4.67,0,0,0,181.32,291.24Z" style="opacity:0.30000000000000004"></path><path d="M181.32,291.24a13.2,13.2,0,0,0-12,0A4.63,4.63,0,0,0,167,294a6.85,6.85,0,0,0,1.66,1.3,14.87,14.87,0,0,0,13.5,0,7,7,0,0,0,1.62-1.26A4.67,4.67,0,0,0,181.32,291.24Z" style="fill:#fff;opacity:0.30000000000000004"></path><path d="M167.77,295.81a16.79,16.79,0,0,0,15.2,0c2.09-1.22,3.13-2.81,3.12-4.4a3.75,3.75,0,0,0-.45-1.76v0a3.83,3.83,0,0,0-.33-.53s0,0,0,0a6.11,6.11,0,0,0-.41-.51l0,0c-.16-.17-.32-.33-.5-.49l0,0c-.17-.15-.37-.3-.57-.45a.18.18,0,0,0-.07,0,7.84,7.84,0,0,0-.74-.48,16.82,16.82,0,0,0-15.2,0,8.1,8.1,0,0,0-1.9,1.51l-.11.13a4.5,4.5,0,0,0-1.06,2.17v0a3.68,3.68,0,0,0-.05.58C164.61,293,165.67,294.59,167.77,295.81Zm.81-8.31a14.85,14.85,0,0,1,13.49,0c3.73,2.15,3.76,5.66.05,7.81a14.87,14.87,0,0,1-13.5,0C164.9,293.16,164.87,289.65,168.58,287.5Z" style="fill:#263238"></path><path d="M167.77,295.81a16.79,16.79,0,0,0,15.2,0c2.09-1.22,3.13-2.81,3.12-4.4a3.75,3.75,0,0,0-.45-1.76v0a3.83,3.83,0,0,0-.33-.53s0,0,0,0a6.11,6.11,0,0,0-.41-.51l0,0c-.16-.17-.32-.33-.5-.49l0,0c-.17-.15-.37-.3-.57-.45a.18.18,0,0,0-.07,0,7.84,7.84,0,0,0-.74-.48,16.82,16.82,0,0,0-15.2,0,8.1,8.1,0,0,0-1.9,1.51l-.11.13a4.5,4.5,0,0,0-1.06,2.17v0a3.68,3.68,0,0,0-.05.58C164.61,293,165.67,294.59,167.77,295.81Zm.81-8.31a14.85,14.85,0,0,1,13.49,0c3.73,2.15,3.76,5.66.05,7.81a14.87,14.87,0,0,1-13.5,0C164.9,293.16,164.87,289.65,168.58,287.5Z" style="fill:#fff;opacity:0.30000000000000004"></path><path d="M181.5,288.4c.15-1.06.45-2.11.59-3.17a11.49,11.49,0,0,0-2.5-8.75,12.45,12.45,0,0,1-1.55-2,2.64,2.64,0,0,1-.23-2.47,2.64,2.64,0,0,0-.62,2.93,13.43,13.43,0,0,1,.91,3.06,5,5,0,0,1-2.26,3.91c-1.25.95-2.7,1.6-3.91,2.59a9.1,9.1,0,0,0-2.93,9.05,6.12,6.12,0,0,0,1.11.81,12.31,12.31,0,0,0,11,0,5.65,5.65,0,0,0,1.06-.8A10.83,10.83,0,0,1,181.5,288.4Z" style="fill:#fff;opacity:0.2"></path><path d="M204.51,280.1l-10.74.77L183,280.1c0,3.07,2.71,8.51,3.76,10.07l.07.1a2.46,2.46,0,0,0,.17.22h0a5.27,5.27,0,0,0,1.44,1.18,11.75,11.75,0,0,0,10.63,0,4.65,4.65,0,0,0,1.88-1.86C202.14,287.91,204.51,283,204.51,280.1Z" style="fill:#263238"></path><path d="M204.51,280.1l-10.74.77L183,280.1c0,3.07,2.71,8.51,3.76,10.07l.07.1a2.46,2.46,0,0,0,.17.22h0a5.27,5.27,0,0,0,1.44,1.18,11.75,11.75,0,0,0,10.63,0,4.65,4.65,0,0,0,1.88-1.86C202.14,287.91,204.51,283,204.51,280.1Z" style="fill:#fff;opacity:0.1"></path><path d="M202.55,282.26c1.47-2,.78-4.43-2.06-6.07a14.85,14.85,0,0,0-13.49,0c-2.81,1.63-3.47,4-2,6a4.33,4.33,0,0,0,.4.47,4.63,4.63,0,0,1,2.37-2.77,13.2,13.2,0,0,1,12,0,4.67,4.67,0,0,1,2.42,2.81Q202.37,282.5,202.55,282.26Z" style="fill:#263238"></path><path d="M199.74,279.93a13.2,13.2,0,0,0-12,0,4.63,4.63,0,0,0-2.37,2.77A6.85,6.85,0,0,0,187,284a14.87,14.87,0,0,0,13.5,0,7,7,0,0,0,1.62-1.26A4.67,4.67,0,0,0,199.74,279.93Z" style="fill:#f28f8f"></path><path d="M199.74,279.93a13.2,13.2,0,0,0-12,0,4.63,4.63,0,0,0-2.37,2.77A6.85,6.85,0,0,0,187,284a14.87,14.87,0,0,0,13.5,0,7,7,0,0,0,1.62-1.26A4.67,4.67,0,0,0,199.74,279.93Z" style="opacity:0.5"></path><path d="M199.74,279.93a13.2,13.2,0,0,0-12,0,4.63,4.63,0,0,0-2.37,2.77A6.85,6.85,0,0,0,187,284a14.87,14.87,0,0,0,13.5,0,7,7,0,0,0,1.62-1.26A4.67,4.67,0,0,0,199.74,279.93Z" style="fill:#fff;opacity:0.1"></path><path d="M186.19,284.5a16.79,16.79,0,0,0,15.2,0c2.09-1.22,3.13-2.81,3.12-4.4a3.75,3.75,0,0,0-.45-1.76v0a3.83,3.83,0,0,0-.33-.53s0,0,0,0a6.11,6.11,0,0,0-.41-.51l0,0c-.16-.17-.32-.33-.5-.49l-.05,0c-.17-.15-.37-.3-.57-.45a.18.18,0,0,0-.07-.05,7.84,7.84,0,0,0-.74-.48,16.82,16.82,0,0,0-15.2,0,8.1,8.1,0,0,0-1.9,1.51l-.11.13a4.5,4.5,0,0,0-1.06,2.17v0a3.68,3.68,0,0,0,0,.58C183,281.69,184.09,283.28,186.19,284.5Zm.81-8.31a14.85,14.85,0,0,1,13.49,0c3.73,2.15,3.76,5.66,0,7.81a14.87,14.87,0,0,1-13.5,0C183.32,281.85,183.29,278.34,187,276.19Z" style="fill:#263238"></path><path d="M186.19,284.5a16.79,16.79,0,0,0,15.2,0c2.09-1.22,3.13-2.81,3.12-4.4a3.75,3.75,0,0,0-.45-1.76v0a3.83,3.83,0,0,0-.33-.53s0,0,0,0a6.11,6.11,0,0,0-.41-.51l0,0c-.16-.17-.32-.33-.5-.49l-.05,0c-.17-.15-.37-.3-.57-.45a.18.18,0,0,0-.07-.05,7.84,7.84,0,0,0-.74-.48,16.82,16.82,0,0,0-15.2,0,8.1,8.1,0,0,0-1.9,1.51l-.11.13a4.5,4.5,0,0,0-1.06,2.17v0a3.68,3.68,0,0,0,0,.58C183,281.69,184.09,283.28,186.19,284.5Zm.81-8.31a14.85,14.85,0,0,1,13.49,0c3.73,2.15,3.76,5.66,0,7.81a14.87,14.87,0,0,1-13.5,0C183.32,281.85,183.29,278.34,187,276.19Z" style="fill:#fff;opacity:0.30000000000000004"></path><path d="M199.79,276.88c.16-1.06.45-2.1.6-3.17a11.57,11.57,0,0,0-2.5-8.75,12.51,12.51,0,0,1-1.56-2,2.61,2.61,0,0,1-.22-2.47,2.64,2.64,0,0,0-.63,2.93,12.49,12.49,0,0,1,.91,3.06,5,5,0,0,1-2.26,3.91c-1.24.95-2.69,1.6-3.9,2.59a9.06,9.06,0,0,0-2.93,9,5.7,5.7,0,0,0,1.1.81,12.31,12.31,0,0,0,11,0,5.4,5.4,0,0,0,1.07-.79A11,11,0,0,1,199.79,276.88Z" style="fill:#fff;opacity:0.2"></path><path d="M152.09,260.57l.57-.93.16.12-.23,2.92a1.5,1.5,0,0,1-.47.77l-.2-.68Z" style="fill:#D91DA7"></path><path d="M149.67,264.07l2.08-1.2.19.69-2.6,1.5c-.23.06-.35,0-.39-.28Z" style="fill:#D91DA7"></path><path d="M152.72,255.93c.22-.07.36,0,.39.27l-.23,2.92-.19.31-.48-.32.18-2.2Z" style="fill:#D91DA7"></path><polygon points="149.56 261.34 149.94 260.72 152.19 259.42 152.5 259.64 152.12 260.26 149.87 261.56 149.56 261.34" style="fill:#D91DA7"></polygon><polygon points="149.84 261.87 149.68 263.86 148.97 264.57 149.18 261.86 149.38 261.54 149.84 261.87" style="fill:#D91DA7"></polygon><polygon points="149.96 260.4 149.39 261.33 149.23 261.23 149.45 258.51 150.12 258.42 149.96 260.4" style="fill:#D91DA7"></polygon></g></svg>