<svg width="29" height="28" viewBox="0 0 29 28" fill="none" xmlns="http://www.w3.org/2000/svg">
<path d="M28.3193 12.9598L13.562 0.15233C13.4487 0.0546823 13.3042 0 13.1519 0H9.69497C9.40592 0 9.27311 0.359343 9.49185 0.546826L23.1711 12.4208H0.312489C0.14062 12.4208 0 12.5614 0 12.7332V15.0768C0 15.2486 0.14062 15.3892 0.312489 15.3892H23.1671L9.48794 27.2632C9.2692 27.4546 9.40201 27.81 9.69106 27.81H13.2652C13.3394 27.81 13.4136 27.7827 13.4683 27.7319L28.3193 14.8502C28.4545 14.7326 28.563 14.5874 28.6373 14.4244C28.7116 14.2613 28.75 14.0842 28.75 13.905C28.75 13.7258 28.7116 13.5487 28.6373 13.3856C28.563 13.2226 28.4545 13.0774 28.3193 12.9598V12.9598Z" fill="black"/>
</svg>