<svg width="30" height="28" viewBox="0 0 30 28" fill="none" xmlns="http://www.w3.org/2000/svg">
<path d="M29.0626 12.5156H6.20708L19.8868 0.640625C20.1055 0.449219 19.9727 0.09375 19.6836 0.09375H16.2266C16.0743 0.09375 15.9297 0.148437 15.8165 0.246094L1.05474 13.0547C0.919539 13.1719 0.811109 13.3168 0.736796 13.4795C0.662483 13.6423 0.624023 13.8191 0.624023 13.998C0.624023 14.177 0.662483 14.3538 0.736796 14.5166C0.811109 14.6793 0.919539 14.8242 1.05474 14.9414L15.9024 27.8281C15.961 27.8789 16.0313 27.9062 16.1055 27.9062H19.6797C19.9688 27.9062 20.1016 27.5469 19.8829 27.3594L6.20708 15.4844H29.0626C29.2344 15.4844 29.3751 15.3438 29.3751 15.1719V12.8281C29.3751 12.6562 29.2344 12.5156 29.0626 12.5156Z" fill="black"/>
</svg>