<svg width="360" height="154" viewBox="0 0 360 154" fill="none" xmlns="http://www.w3.org/2000/svg">
<path fill-rule="evenodd" clip-rule="evenodd" d="M394 154L377.042 134.75C360.083 115.5 326.167 77 292.25 77C258.333 77 224.417 115.5 190.5 118.708C156.583 121.917 122.667 89.8333 88.75 83.4167C54.8333 77 20.9167 96.25 3.95834 105.875L-13 115.5V0H3.95834C20.9167 0 54.8333 0 88.75 0C122.667 0 156.583 0 190.5 0C224.417 0 258.333 0 292.25 0C326.167 0 360.083 0 377.042 0H394V154Z" fill="white"/>
</svg>
