<svg width="360" height="184" viewBox="0 0 360 184" fill="none" xmlns="http://www.w3.org/2000/svg">
<path fill-rule="evenodd" clip-rule="evenodd" d="M360 125.06L342.792 108.385C325.583 91.7106 291.167 58.3613 256.75 41.6866C222.333 25.012 187.917 25.012 153.5 54.1926C119.083 83.3733 84.6667 141.735 50.25 166.747C15.8333 191.759 -18.5833 183.421 -35.7917 179.253L-53 175.084V0H-35.7917C-18.5833 0 15.8333 0 50.25 0C84.6667 0 119.083 0 153.5 0C187.917 0 222.333 0 256.75 0C291.167 0 325.583 0 342.792 0H360V125.06Z" fill="white"/>
</svg>
